<?xml version="1.0" encoding="UTF-8"?>
<svg enable-background="new 0 0 990 53" version="1.1" viewBox="0 0 990 53" xml:space="preserve" xmlns="http://www.w3.org/2000/svg">
<style type="text/css">
	.st0{display:none;}
	.st1{display:inline;fill:#515050;}
	.st2{display:inline;}
	.st3{opacity:0.5;}
	.st4{fill:#FFFFFF;}
	.st5{fill:#1A1A1A;}
	.st6{fill:#1A1A38;}
	.st7{fill:#008E90;}
	.st8{fill:#FA1E44;}
	.st9{fill:#32647D;}
</style>
<g class="st0">
	<rect class="st1" x="-32" y="-49.2" width="1059" height="127"/>
	<g class="st2">
		<g class="st3">
			<path class="st4" d="m29.3 2.3c2-0.4 3.9-0.5 5.9-0.4 4.5 0.1 8.9 1 13 2.8 4.6 2 8.6 5.1 11.9 8.9-0.2 1-0.9 2-1.8 2.5-1 0.6-2.2 1-3.5 1.1-1 0.1-2 0-2.9 0.5-0.6 0.3-1 0.9-1.3 1.6-0.4 1-0.4 2.1-0.4 3.1 0 0.6 0.1 1.3 0.1 1.9 0 0.1 0 0.3 0.1 0.3 0.7 0.5 1.6 0.6 2.4 0.9 2.4 0.8 4.7 2 6.6 3.6 1.9 1.3 3.6 3 4.5 5.1-0.3 0.7-1 1.3-1.7 1.4-1.1 0.2-2.2-0.3-2.9-1.2-0.8-1-1.8-1.8-2.8-2.4-0.5-0.3-1.1-0.5-1.7-0.7-0.8-0.2-1.5-0.3-2.3-0.3-0.7 0-1.4 0.2-2.1 0.3-0.7 0-1.5 0.1-2.2 0.1-1.2 0.1-2.4 0-3.6-0.4-1 0.3-2 0.4-3 0.3-1.6-0.2-3.1-0.7-4.6-1.4-1.8-0.8-3.6-1.8-5.5-2.4-1.2-0.4-2.5-0.8-3.8-0.7-0.7 0-1.4 0.2-2 0.6-0.1 0.1-0.2 0.2-0.3 0.4-0.8 1.3-2 2.3-3.4 3-1.3 0.7-2.8 1.1-4.2 1.4-1.5 0.4-3 0.6-4.5 1.1-0.8 0.3-1.6 0.7-2.4 1.2-1.2 0.8-2.4 1.7-3.6 2.6-0.5 0.5-1.1 0.9-1.6 1.4-0.8 0.6-1.7 1.2-2.7 1.2-1 0.1-1.8-0.6-2.4-1.3 1.4-1.5 2.8-3.2 4.4-4.7 1.1-1 2.1-2.1 2.9-3.4 0.4-0.6 0.8-1.2 1.4-1.6 0.4-0.2 0.8-0.3 1.2-0.4 1.2-0.1 2.5-0.6 3.3-1.6 0.5-0.6 0.8-1.3 1-2 0.5-1.5 0.7-3.1 1.4-4.5 0.2-0.4 0.4-0.8 0.8-1.1 0.2-0.1 0.3-0.3 0.4-0.5-0.5-0.1-1-0.1-1.4-0.4-1.1-0.5-1.8-1.7-2-2.9-0.1-1 0.2-2.1 0.7-2.9 0.6 0.3 1.2 0.4 1.8 0.7 0.7 0.2 1.3 0.6 2 0.8 0.5 0.1 1 0.3 1.5 0.4 1.6 0.4 3.2 0.6 4.8 0.7l4.8 0.3c1.8 0.1 3.6 0.5 5.3 0.9s3.4 0.5 5.1 0.1c1.2-0.4 2.2-1.3 2.8-2.5 1-1.9 1.2-4 1.9-6-0.7 0.5-1.3 0.9-2 1.3-2.5 1.2-5.3 1.6-8.1 1.1-2.4-0.5-4.6-1.6-6.3-3.3 1.1-0.6 2.3-1.1 3.5-1.5-1-0.8-1.9-1.9-2.5-3.1m66 0.3c1.7-0.3 3.4-0.3 5.2-0.2 4.3 0.1 8.5 1 12.4 2.6 2.7 1.1 5.3 2.5 7.7 4.2 2 1.5 3.9 3.3 5.5 5.2-0.2 1.1-0.9 2-1.9 2.6-0.9 0.5-1.9 0.9-2.9 1-1.1 0.1-2.2 0-3.2 0.5-0.7 0.3-1.1 0.9-1.4 1.6-0.4 1.1-0.4 2.3-0.3 3.5 0.1 0.7 0.1 1.4 0.1 2 0.5 0.5 1.1 0.7 1.8 0.9 2.2 0.9 4.4 1.9 6.3 3.4 0.3 0.2 0.8 0.6 1.1 0.8 1.8 1.4 3.1 2.7 4.1 4.7 0.1 0.1 0.1 0.2 0.1 0.4-0.3 0.6-0.9 1.2-1.6 1.3-0.8 0.2-1.7 0-2.4-0.5-0.6-0.4-0.9-1-1.4-1.4-1.1-0.9-2.3-1.8-3.7-2.2-0.8-0.3-1.6-0.5-2.4-0.5-0.6 0-1.1 0-1.7 0.1-0.9 0.1-1.9 0.1-2.8 0-1.2 0-2.4-0.2-3.5-0.7-0.8 0.2-1.7 0.3-2.6 0.2-1.6-0.2-3.1-0.7-4.5-1.3-2.1-0.9-4.1-2-6.2-2.8-1.6-0.6-3.4-1-5.1-0.5-0.4 0.1-0.9 0.2-1.2 0.6-1.2 1.5-2.8 2.5-4.7 3-1.3 0.3-2.6 0.4-4 0.5-1.2 0-2.3-0.1-3.5 0.1-0.8 0.1-1.6 0.4-2.1 1-1.7 1.7-2.7 4-4.5 5.6-0.5 0.5-1.2 0.9-2 0.9-0.8 0.1-1.6-0.3-2.2-0.8 0.9-1.5 1.8-3 2.8-4.5 0.5-1 1.1-1.9 1.5-2.9s0.7-2 1.2-3c0.2-0.4 0.5-0.9 1-1.1 0.7-0.3 1.5-0.1 2.3-0.2 1.2-0.1 2.4-0.4 3.3-1.3s1.2-2.1 1.4-3.3c0.3-1.1 0.8-2.3 1.7-3.1l0.3-0.3c-0.6-0.1-1.1-0.2-1.6-0.6-1.1-0.7-1.7-2.1-1.6-3.4 0.1-0.9 0.5-1.8 1.1-2.4 0.5 0.3 1 0.6 1.5 0.8 0.7 0.3 1.4 0.8 2.2 1 3.3 1.3 6.9 1.3 10.4 1.8 1.8 0.2 3.5 0.6 5.2 1.1s3.5 0.9 5.3 0.6c1.3-0.2 2.4-1.1 3-2.3 1.2-1.9 1.2-4.3 2.1-6.3-1.7 1.2-3.6 2-5.6 2.2-4 0.6-8.1-0.8-10.9-3.7 1.2-0.5 2.3-1 3.6-1.4-1.2-1.2-2.1-2.3-2.7-3.5m66 1.6c1 0 1.7 0 3 0.1 2.6 0.2 5.2 0.7 7.8 1.4 1.9 0.5 3.8 1.2 5.6 1.9 3.1 1.2 6.1 2.7 8.7 4.7 2.1 1.5 3.9 3.3 5.6 5.3-0.2 0.7-0.6 1.4-1.1 1.9-0.8 0.8-1.9 1.2-3 1.4-1.3 0.3-2.6 0-3.8 0.6-0.9 0.5-1.3 1.5-1.5 2.4-0.5 1.9-0.3 4-0.6 6 0.2 0.3 0.5 0.6 0.8 0.8 2.3 1.7 4.7 3.4 6.6 5.5 0.3 0.4 0.9 0.5 1.3 0.8 1.3 0.9 2.5 1.9 3.3 3.2 0.1 0.2 0.3 0.5 0.4 0.7-0.1 0.6-0.6 1.1-1.1 1.4-0.8 0.4-1.8 0.3-2.6-0.1s-1.3-1.1-2-1.6c-0.6-0.4-1.1-0.9-1.7-1.2-0.5-0.3-0.9-0.6-1.4-0.9-0.9-0.4-1.9-1-2.9-1.2-0.7-0.1-1.3-0.3-2-0.2-1 0-1.9-0.2-2.8-0.4-1-0.2-1.9-0.6-2.7-1.1-0.2-0.1-0.3-0.2-0.5-0.3-1.5 0.1-3.1-0.3-4.4-0.9-1.5-0.7-2.9-1.6-4.2-2.6-1.9-1.4-3.6-3-5.8-4-0.9-0.4-2-0.5-2.9-0.1-0.3 0.1-0.5 0.4-0.7 0.7-1 1.3-2.5 2.1-4.1 2.4-1.7 0.3-3.4 0.2-5-0.1-0.9-0.2-1.8-0.5-2.6-0.2 0 0.4 0.2 0.8 0.4 1.2 0.2 0.5 0.5 1.1 0.7 1.6 0.3 1.4 0.5 2.8 0.1 4.2-0.2 0.7-0.5 1.4-1.1 1.8s-1.4 0.5-2.1 0.5c-0.2-1.6-0.2-3.1-0.5-4.7-0.2-1-0.8-1.8-1.2-2.7-0.3-0.7-0.7-1.3-0.9-2.1-0.2-0.9-0.3-1.9-0.1-2.8 0.2-0.5 0.5-1.1 1.1-1.2 1-0.3 2-0.5 3-0.7 0.9-0.2 1.8-0.5 2.4-1.2s0.7-1.7 0.7-2.5c0-0.7 0.1-1.3 0.3-1.9 0.4-0.8 1-1.4 1.6-2-0.5-0.2-0.9-0.3-1.3-0.6-1.1-0.8-1.7-2.3-1.5-3.7 0.2-1.2 1-2.2 2-2.7 0.4 0.5 0.8 1 1.2 1.4 1.4 1.4 3.3 2.2 5.3 2.5 2.2 0.3 4.4 0.6 6.5 1.1 1.6 0.4 3.2 1 4.7 1.8 1.6 0.8 3.1 1.9 4.9 2.3 0.9 0.2 1.9 0.1 2.7-0.5 0.7-0.6 1.2-1.4 1.5-2.3 0.7-1.8 0.6-3.8 1.5-5.5-0.5 0.4-1 0.7-1.7 0.9-2.4 0.9-5.1 1.2-7.6 0.7-2.9-0.6-5.5-2.2-7.4-4.4 1.2-0.5 2.4-0.8 3.6-1.1-1.1-1.2-2-2.4-2.5-3.7m65.5 2.8c0.8 0.1 1.7 0 2.5 0.3 0.9 0.3 1.9 0.5 2.9 0.7 2.3 0.6 4.5 1.4 6.7 2.3 1.8 0.7 3.5 1.5 5.3 2.3 2.6 1.1 5.2 2.5 7.5 4.2 1.3 1 2.5 2.1 3.7 3.3 0.6 0.7 1.3 1.4 1.8 2.1-0.3 1-1 1.9-1.9 2.4-1 0.6-2.2 0.9-3.3 1-0.8 0.1-1.6 0.1-2.3 0.5-0.7 0.3-1.2 1-1.5 1.7-0.8 1.6-1.2 3.3-1.7 5-0.3 1.1-0.7 2.2-1.1 3.3l-0.3 0.6c0 0.2 0.1 0.5 0.2 0.7 0.7 1.6 1.7 3.1 2.7 4.6 0.2 0.3 0.4 0.7 0.7 1s0.5 0.7 0.8 1c0.2 0.2 0.4 0.5 0.7 0.7 0.4 0.2 0.9 0.3 1.3 0.6 1.3 0.9 2.4 2 3.2 3.3 0.1 0.2 0.3 0.3 0.3 0.6-0.2 0.7-0.8 1.3-1.5 1.5-1.2 0.4-2.5-0.2-3.4-1.1-0.6-0.6-1.4-1.1-2.1-1.7-0.7-0.4-1.3-1-2-1.4-0.3-0.2-0.6-0.3-0.9-0.6-1-0.8-2.1-1.4-3.3-1.9-0.8-0.2-1.6-0.3-2.3-0.7-0.6-0.3-1.2-0.7-1.7-1.3-0.7-0.7-1.1-1.5-1.6-2.3-1.6-0.4-2.9-1.4-4.2-2.5-2-1.7-3.3-4-4.7-6.1-0.3-0.5-0.6-1-1-1.4-0.5-0.6-0.9-1.3-1.4-1.9-0.1-0.1-0.2-0.1-0.4-0.1-0.3 0.6-0.6 1.3-1 1.8-0.3 0.3-0.5 0.6-0.8 0.8-1 0.7-2.3 1-3.5 0.9-0.4 0-0.8-0.2-1.2-0.2-0.3 0.1-0.4 0.4-0.5 0.6 0.1 0.3 0.4 0.6 0.6 0.8 0.4 0.3 0.7 0.7 1.1 0.9 0.7 0.4 1.5 0.8 2.2 1.3s1.4 1 1.7 1.8c0.4 0.9 0.1 1.9-0.4 2.7h-0.3c-1.4-0.6-2.9-1.1-4.2-1.9-0.5-0.3-1.1-0.5-1.6-0.8-0.4-0.2-0.8-0.4-1.2-0.7-0.4-0.4-0.9-0.7-1.4-1-0.7-0.6-1.1-1.4-1.5-2.2-0.1-0.6-0.3-1.3-0.1-1.9 0.1-0.3 0.2-0.5 0.3-0.8 0.2-0.4 0.8-0.5 1-0.9s0.5-0.8 0.6-1.3c0.2-1 0.1-2-0.1-3-0.2-0.7-0.2-1.4-0.4-2.1-0.1-0.5-0.1-1.1 0-1.6 0.3-0.5 0.8-0.9 1.1-1.5-0.4-0.1-0.7-0.3-1-0.5-0.9-0.5-1.6-1.4-1.8-2.5-0.1-0.8-0.1-1.6 0.2-2.3 0.4-0.8 1.1-1.5 1.9-1.9 0.5 0.6 0.9 1.3 1.4 1.8 1.2 1.1 2.8 1.9 4.4 2 1 0 2.1 0.2 3.1 0.2 0.8 0.1 1.5 0.3 2.2 0.4l2.1 0.6c2 0.7 3.8 1.8 5.4 3.2 0.8 0.7 1.5 1.5 2.2 2.3 0.7 0.7 1.4 1.4 2.2 1.8 0.4 0.1 0.8 0.1 1.2 0 0.7-0.3 1.2-0.9 1.5-1.5 0.8-1.6 0.7-3.5 1.1-5.2 0.1-0.4 0.3-0.8 0.5-1.3-0.5 0.2-0.9 0.6-1.4 0.7-0.6 0.1-1.2 0.3-1.8 0.4-1.1 0.2-2.3 0.2-3.4 0.2-4-0.2-8-2.4-10.2-5.9 0.8-0.2 1.6-0.3 2.4-0.5 0.4-0.1 0.9-0.2 1.3-0.2-0.4-1.5-1.2-2.8-1.6-4.2m65.8 0.2c0.9 0 2.7 0.5 3.3 0.7 1 0.3 2.1 0.6 3.1 1 2.2 0.8 4.4 1.7 6.5 2.7 1.5 0.7 2.9 1.4 4.4 2.1 4 1.6 7.7 4.1 10.8 7.2 0.8 0.8 1.6 1.5 2.2 2.4-0.2 0.6-0.5 1.2-1 1.6-0.4 0.4-0.9 0.7-1.5 1-0.8 0.4-1.7 0.7-2.7 0.8-0.7 0.1-1.5 0.2-2.2 0.6-0.9 0.5-1.6 1.2-2.1 2.1l-1.5 2.7c-0.7 1.3-1.3 2.6-2 3.9-0.6 0.9-1.2 1.9-1.9 2.8-0.1 0.7 0.1 1.3 0.1 2 0.2 0.7 0.4 1.5 1 2 0.2 0.2 0.5 0.4 0.7 0.5 0.8 0.2 1.6 0.4 2.3 0.7 0.8 0.5 1.5 1 2 1.7 1 1.1 1.6 2.5 2 3.9 0.1 0.1-0.1 0.2-0.1 0.3-0.5 0.5-1.1 0.9-1.9 0.9-1 0-2-0.6-2.5-1.5-0.2-0.5-0.6-1-1-1.3-0.5-0.3-0.9-0.5-1.5-0.7s-6.1-1.5-7.7-2.2c-0.5-0.3-0.9-0.6-1.3-0.9-0.4-0.5-0.8-1.1-1-1.8-0.2-0.5-0.3-1.1-0.4-1.6-1.2-0.5-2.1-1.5-3-2.4-1.1-1.2-2-2.6-2.6-4.1-0.4-0.9-0.7-1.7-1.1-2.6-0.3-0.6-0.5-1.3-0.8-1.8-0.2 0.8-0.6 1.5-1.1 2.1-0.4 0.4-0.8 0.7-1.3 0.9-0.7 0.3-1.4 0.6-2.2 0.4-0.2 0-0.4 0.2-0.4 0.4 1 0.2 1.9 0.6 2.9 0.7 1.4 0.3 2.9 0.6 4 1.6 0.6 0.5 1 1.3 0.9 2.1 0 0.5-0.1 0.9-0.3 1.3-0.4 0-1.8-0.5-3.3-0.8s-3.1-0.4-5.6-0.8c-1-0.2-3.5-1.3-3.7-2.9-0.1-0.5-0.2-1 0-1.5 0.7-1 0.6-3.2 0.5-4-0.1-0.6-0.4-1.2-0.6-1.8-0.2-0.8-0.6-1.5-0.8-2.3-0.1-0.7 0-1.4 0-2 0-0.2 0.1-0.4 0.1-0.6-0.8-0.1-1.6-0.5-2.2-1.1-0.4-0.4-0.5-0.5-0.7-0.9-1.1-1.8-0.5-4.6 1.1-5.9 0.2-0.2 0.5-0.4 0.8-0.6 0.1 0.2 0.3 0.4 0.4 0.6 0.2 0.6 0.5 1.1 0.8 1.6 0.3 0.4 0.7 0.7 1.1 1s0.9 0.4 1.4 0.5c1 0.2 1.9 0.1 2.9 0 0.5-0.1 1.1-0.1 1.6-0.1 1-0.1 2 0 3 0 0.7 0.1 1.4 0.3 2.2 0.4 1.7 0.5 3.3 1.3 4.7 2.4 1.5 1.1 2.5 2.6 3.8 3.9 0.6 0.5 1.3 0.9 2.1 0.9 0.9 0 1.7-0.6 2.2-1.3 0.6-1 1-2.1 1.2-3.2 0.1-0.6 0.2-1.3 0.3-1.9 0.1-0.5 0.3-1 0.5-1.5-0.4 0.2-0.7 0.4-1 0.6-0.4 0.1-0.9 0.1-1.3 0.2-1.1 0.2-2.3 0.3-3.4 0.2-4.4-0.1-8.7-2.6-11-6.3 0.5-0.1 0.9-0.2 1.4-0.3 0.8-0.1 1.5-0.3 2.3-0.4-0.7-1.4-1.6-2.8-1.9-4.3m65.8 24.8c-0.2 0.5-0.4 1-0.8 1.4-0.5 0.6-1.2 0.9-1.7 1.4-0.1 0.2-0.1 0.4-0.1 0.5 1.3 0 2.6 0 4-0.1-0.6-0.9-1.1-2-1.4-3.2m-0.4-23.9c1.2 0.1 4.5 0.9 5.4 1.2 2.2 0.6 4.4 1.4 6.6 2.3 1.8 0.8 3.6 1.6 5.4 2.3 1.3 0.5 2.6 1.1 3.8 1.7 1.5 0.8 2.9 1.8 4.2 2.8 1.3 1.1 2.6 2.3 3.8 3.5 0.5 0.5 1 0.9 1.4 1.5-0.1 0.7-0.5 1.2-1 1.7-0.4 0.4-0.9 0.7-1.4 1-0.8 0.4-1.6 0.7-2.5 0.8-0.5 0.1-1.1 0.2-1.6 0.3-1.1 0.3-2.1 1.1-2.8 2-0.4 0.6-0.9 1.3-1.3 1.9-0.4 0.7-1 1.3-1.4 2-0.6 0.8-1.2 1.6-1.8 2.4-0.7 0.9-1.5 1.6-2.3 2.3-0.2 0.2-0.4 0.3-0.6 0.5-0.3 0.8-0.5 1.7-0.6 2.5 0 0.2 0 0.4 0.1 0.6 0.5 0.3 1.1 0.3 1.7 0.5 0.6 0.1 1.1 0.4 1.7 0.7 0.1 0.1 0.3 0.2 0.4 0.3 0.1 0.4 0.2 0.7 0.3 1.1 0.1 0.6 0.3 1.1 0.3 1.7-0.1 0.7 0 1.4-0.2 2.1-0.3 1.1-0.7 2.2-1.2 3.3-0.7 0.2-1.6 0.1-2.2-0.4-0.5-0.4-0.8-1-0.9-1.6-0.1-0.8 0.3-1.4 0.6-2.1 0.2-0.3 0.1-0.8-0.1-1-0.3-0.3-0.7-0.4-1.2-0.5s-1-0.3-1.6-0.4c-0.2 0-1.9-0.6-2.6-0.8-0.6-0.2-1.2-0.4-1.8-0.7-0.4-0.3-0.7-0.6-1-0.9s-0.4-0.7-0.6-1.1c-0.3-0.7-0.3-1.5-0.4-2.3-0.9-0.2-1.9-0.4-2.8-0.3-0.8 0.1-1.5 0.4-2.3 0.5-2.3 0.5-4 0.1-4.6-0.2-1.3-0.5-1.6-1.3-1.8-1.7-0.2-0.3-0.1-0.7-0.1-1 0-1-1-2.9-1.4-3.7-0.3-0.5-0.8-0.9-1.2-1.4-0.6-0.6-0.9-1.3-1.3-1.9-0.5-1-0.7-2.1-1-3.2-0.1-0.3 0-0.5 0-0.8-0.2 0-0.5 0-0.7-0.1-1-0.6-1.9-1.3-2.6-2.2-0.6-0.8-0.7-1.8-0.7-2.8 0-0.3 0-0.4 0.1-0.6 0.1-0.7 0.4-1.3 0.7-2 0.2-0.5 0.6-0.9 1-1.2l0.9-0.6c0.2 0.5 0.3 1.1 0.5 1.6 0.2 0.6 0.4 1.1 0.9 1.6 0.4 0.3 0.7 0.8 1.3 0.9 0.5 0.1 0.9 0.1 1.4 0 1.1-0.3 2.2-0.7 3.2-1.1 0.7-0.3 1.5-0.4 2.3-0.7 0.8-0.2 1.6-0.2 2.5-0.3 2.1 0.1 4.1 0.7 5.9 1.7 0.4 0.2 0.7 0.5 1.1 0.8 0.5 0.4 1 0.8 1.4 1.2 0.7 0.6 1.3 1.2 2.1 1.7s1.8 1 2.8 0.8c0.7-0.1 1.3-0.6 1.7-1.2 0.3-0.6 0.6-1.2 0.8-1.8l0.3-2.4c0.1-0.6 0.3-1.1 0.5-1.6-0.4 0.3-0.8 0.6-1.4 0.7-0.8 0.2-1.6 0.4-2.4 0.5-1 0.1-2.1 0.1-3.2 0.1-4-0.4-7.8-2.6-9.9-6 0.8-0.2 1.5-0.3 2.3-0.5 0.5-0.1 0.9-0.2 1.4-0.2-1.1-0.9-2-2.3-2.3-3.8m67.1 26.9c-0.1 0.4-0.2 0.8-0.2 1.2 0.1 0.4 0.2 0.7 0.4 1 0.1 0.2 0.4 0.2 0.5 0.3 0.1-0.3 0.2-0.6 0.2-0.9-0.4-0.5-0.7-1.1-0.9-1.6m-1.9-25.2c2.1 0 4.5 0.5 5.4 0.7 2.6 0.5 5.2 1.2 7.7 2 1.9 0.6 3.8 1.2 5.6 1.9 2.9 1.1 5.4 2.9 7.6 5 0.6 0.6 1.3 1.2 1.9 1.8 0.8 0.7 1.6 1.4 2.4 2.3-0.2 0.8-0.6 1.5-1.2 2-0.9 0.8-2 1.4-3.3 1.6-1 0.2-2 0.3-2.9 0.8-0.7 0.4-1.3 0.9-1.9 1.4-0.4 0.4-0.6 0.8-1 1.2-0.6 0.6-1 1.4-1.6 2-0.5 0.5-0.9 1-1.4 1.5s-1.1 1-1.6 1.5c-0.9 0.9-3.2 2.3-3.6 2.7s-0.7 1.1-0.9 1.7c-0.2 0.4-0.2 1.7-0.2 2 0.8 0.7 1.7 1.3 2.4 2.1 0.1 0.1 0.1 0.4 0.1 0.5-0.2 0.7-0.4 2.1-1 3-0.3 0.5-0.7 1-1.1 1.5-0.9 1-1.9 1.9-2.9 2.7-0.2 0.2-0.5 0-0.7-0.1-0.7-0.3-1.3-1-1.4-1.7-0.1-0.6 0-1.2 0.3-1.7 0.4-0.6 1.1-1 1.6-1.4 0.4-0.3 0.6-0.6 0.7-1.1-0.3-0.9-1.1-1.3-1.9-1.8-0.8-0.4-2.5-1.4-3.1-1.7l-0.6-0.3c-0.5 0.1-0.9 0.2-1.4 0.3-0.6 0.1-2 0.1-3.3-0.4-0.5-0.2-1-0.6-1.3-1.1-0.2-0.4 0-0.8-0.2-1.2-0.1-0.2-0.3-0.4-0.4-0.6-0.5-0.7-3.1-2-4.4-2.4-0.5-0.1-0.7-0.1-1-0.4-0.4-0.4-1.2-1.4-1.8-2.3-0.5-1.1-1-1.8-1.4-3-0.2-0.6-0.1-1-0.1-1.3-0.3 0-0.5 0-0.7-0.1-1.1-0.7-2.2-1.6-3-2.7-1-1.4-0.9-3.4-0.3-4.9 0.5-1.2 1.5-2.3 2.2-2.6 0.3 0.8 0.4 1.7 0.7 2.5 0.2 0.7 0.7 1.2 1.2 1.7 0.3 0.3 0.7 0.2 1.1 0.2 0.5-0.1 0.9-0.4 1.3-0.7 1.2-0.7 2.2-1.5 3.4-2.2 0.5-0.3 0.9-0.6 1.4-0.8 0.7-0.2 1.3-0.6 2.1-0.7 0.6-0.1 1.3-0.2 1.9-0.2 0.7 0 1.4 0 2.1 0.1 0.6 0.1 1.2 0.2 1.8 0.4 0.8 0.3 1.5 0.6 2.2 1 1.1 0.6 2 1.4 3 2 0.5 0.3 1.1 0.5 1.6 0.8 0.6 0.3 1.2 0.4 1.8 0.5 0.7 0.1 1.4-0.3 1.9-0.7 0.4-0.5 0.6-1 0.8-1.6 0.1-0.7 0.2-1.5 0.3-2.2 0-0.6 0.2-1.1 0.4-1.6-0.5 0.3-1 0.7-1.5 0.9-2.1 0.9-4.5 1.2-6.8 0.9-3.4-0.5-6.5-2.2-8.6-5 0.8-0.3 1.6-0.5 2.5-0.7l1.2-0.3c-0.8-1.1-1.6-2.3-2.1-3.7m79.2 9.3c-2.2 1.1-4.8 1.6-7.2 1.2 0.6 0.4 1.3 0.7 2 1.1l1.2 0.6 1.2 0.6c0.4 0.2 0.8 0.3 1.2 0.4s0.8 0.2 1.2 0.2c0.4-0.1 0.7-0.2 1-0.4 0.3-0.1 0.4-0.4 0.6-0.6 0.2-0.3 0.4-0.6 0.5-0.9l0.3-2.1c0-0.5 0.2-1 0.4-1.5-1 0.4-1.7 1-2.4 1.4m-13.6-7.3c1-0.2 2.1-0.2 3.2-0.2 2.9 0 5.9 0.3 8.8 0.8 3.3 0.6 6.7 1.3 9.7 3 1.5 0.9 2.9 1.9 4.2 3 1.2 1 2.3 2.1 3.5 3.2 0.5 0.4 1 0.9 1.4 1.3 0.1 0.1 0.2 0.2 0.2 0.3-0.2 0.8-0.7 1.5-1.3 2.1-0.6 0.5-1.2 0.9-2 1.2-0.9 0.4-2 0.4-3 0.7-1.3 0.3-2.4 1.1-3.4 2.1-0.6 0.7-1.2 1.3-1.8 1.9-0.3 0.4-0.6 0.7-1 1-0.8 0.6-1.4 1.4-2.2 2-0.7 0.5-1.4 1.1-2.1 1.5l-2.7 1.5c-0.2 0.1-0.5 0.2-0.7 0.3-0.4 0.3-0.5 0.8-0.8 1.2-0.2 0.3-0.3 0.6-0.5 0.9 1.5 0.1 3 0.3 4.2 1.2 0.9 0.7 1 2 0.7 3-1.7-0.1-3.4-0.4-5.1-0.3 0.1 0.4 0.4 0.8 0.5 1.3 0 0.2-0.2 0.4-0.3 0.6l-1.2 1.5c-0.4 0.6-1.1 1-1.7 1.4-0.7 0.5-1.5 0.9-2.2 1.3-0.8 0.4-1.6 0.8-2.4 1-0.9-0.4-1.5-1.6-1.3-2.6 0.1-0.5 0.4-1.1 0.9-1.4 0.7-0.6 1.7-0.7 2.5-1.2 0.5-0.3 1-0.9 0.9-1.6-0.7 0-1.2-0.1-2-0.3-0.9-0.2-1.4-0.5-1.9-1.1-0.1-0.2-0.3-0.4-0.4-0.6 0-0.3 0.1-0.7 0.1-1s-0.3-0.4-0.4-0.6c-0.5-0.5-1.2-0.5-1.8-0.6-1.3-0.3-2.6-0.1-3.9-0.1-0.4 0-0.8 0.1-1.1-0.1-1.2-0.8-2.3-2.4-2.6-2.8-0.6-1.2-1.1-2.4-1.6-3.7-0.1-0.3-0.1-0.6-0.1-0.9-1.9-0.4-3.1-1.8-4.1-3-0.7-1-0.9-2.2-0.9-3.4 0-0.8 0.5-2.3 1.1-3.2 0.4-0.5 0.8-1 1.4-1.1 0.2 1 0.5 1.9 0.8 2.8 0.1 0.5 0.5 0.9 0.9 1.2 0.2 0.2 0.5 0.5 0.8 0.5s0.7-0.1 1-0.3c0.2-0.2 0.4-0.4 0.6-0.5 1.2-0.9 2.1-2.1 3.2-3.1 0.5-0.6 1.2-1 1.8-1.5 0.4-0.3 0.9-0.5 1.4-0.7 0.8-0.4 1.8-0.6 2.7-0.8 0.8-0.1 1.5-0.1 2.3-0.1-1.2-0.6-2.2-1.4-3.2-2.4 1.1-0.5 2.3-1 3.5-1.4-0.1-0.1-0.1-0.2-0.2-0.3-1-0.7-1.8-1.7-2.4-2.9m70.7 29.6c-0.1 0.7-0.1 1.4 0.1 2l0.6-0.6c0.1-0.1 0.1-0.2 0-0.3-0.1-0.4-0.4-0.8-0.7-1.1m-2.8-30.4c5.2-0.7 10.6-0.2 15.6 1.3 1.6 0.5 3.1 1.1 4.6 2 1.4 0.9 2.7 1.9 4 3 1.2 1.1 2.3 2.3 3.6 3.3 0.5 0.5 1 0.9 1.4 1.4 0 0.3-0.1 0.6-0.3 0.9-0.3 0.6-0.7 1.1-1.3 1.5-0.4 0.3-0.7 0.5-1.1 0.8-0.7 0.3-1.4 0.6-2.1 0.7-1 0.2-2.1 0.4-3 0.9s-1.7 1.1-2.3 1.9c-0.5 0.5-1 1-1.5 1.6-0.6 0.7-1.3 1.2-1.9 1.8-0.5 0.5-1.1 1-1.7 1.4s-1.2 0.9-1.9 1.3-1.5 0.7-2.2 1c-0.4 0.2-0.7 0.4-1.2 0.5-0.3 0.1-0.5 0.3-0.7 0.5-0.4 0.4-1.7 1.8-1.9 2.1-0.1 0.2-0.3 0.3-0.4 0.5l0.1 0.2c0.5 0 1.9 1.2 2.5 1.9 0 0.2 0 0.3-0.1 0.4-0.3 0.7-0.4 1.4-1 2.2-0.4 0.8-1.8 2.1-2.5 2.6 0.3 0.3 0.6 0.5 1 0.6 0.6 0.2 1.2 0.4 1.8 0.4 0.7 0.1 1.4 0.6 1.7 1.3 0.2 0.5 0.4 1.1 0.4 1.7-0.8 0.1-1.6 0.5-4.2 0.5-1.5-0.1-2.9-1.2-3.5-1.4-0.6-0.4-1.2-0.8-1.8-1.1-0.8-0.5-1.5-1.2-2-2s-0.9-1.7-0.5-2.6c0.2-0.2 0.6-0.3 0.8-0.6-0.1-0.3-0.6-0.8-0.8-0.9-1.3-0.8-2.7-1.5-4.2-2-0.7-0.2-1.7-0.4-2.3-0.9-0.5-0.5-1.5-1.7-2-2.7-0.5-1.2-0.9-2.4-1.3-3.6-0.2-0.4-0.1-0.8-0.1-1.1-0.3 0-0.6 0-0.9-0.2-1.2-0.8-2.3-1.7-3.2-2.8-1-1.4-1.1-3.3-0.6-4.9 0.2-0.5 0.4-1.4 1.6-2.4l0.6-0.3c0.2 0.9 0.5 1.8 0.8 2.7 0.2 0.6 0.8 1 1.3 1.5 0.3 0.3 0.7 0.2 1 0.2 0.5-0.1 0.9-0.4 1.4-0.7 0.6-0.3 1.2-0.7 1.7-1.1 1.2-0.7 2-1.8 3.2-2.5 0.7-0.6 1.5-0.9 2.4-1.2 1.3-0.4 2.6-0.7 3.9-0.8 0.7 0 1.4 0.1 2.1 0.2 0.7 0.2 1.4 0.3 2.1 0.6 0.6 0.3 1.2 0.5 1.8 0.8 0.5 0.3 1.1 0.4 1.6 0.6 0.4 0.2 0.8 0.3 1.3 0.3 0.5 0.1 1 0.3 1.4 0.1 0.3-0.1 0.7-0.3 0.9-0.5 0.4-0.3 0.6-0.7 0.8-1.1 0.5-0.8 0.5-1.7 0.7-2.6 0.1-0.6 0.3-1.2 0.5-1.8-0.7 0.5-1.4 1.1-2.2 1.5-2 1.1-4.2 1.6-6.4 1.5-3-0.1-5.8-1.2-8-3.2 1.1-0.6 2.3-1.1 3.4-1.6-1.1-0.9-2-2-2.7-3.2 0.6-0.2 1.2-0.3 1.8-0.4m64.6-0.8c2.5-0.8 5.1-1.2 7.7-1.3 4.1-0.2 8.3 0.5 12.1 2.2 2.8 1.4 5.3 3.4 7.6 5.6 1 1.1 2.2 2.1 3.2 3.2 0.1 0.1 0.2 0.3 0.3 0.4-0.3 1-1 1.9-1.9 2.4-0.8 0.6-1.8 1-2.8 1.1-0.9 0.1-1.8 0.3-2.7 0.7-0.8 0.4-1.6 1-2.2 1.7-0.5 0.7-1.1 1.3-1.6 2s-1.2 1.4-1.8 2.1c-0.5 0.6-1.1 1.2-1.7 1.7-0.4 0.4-0.8 0.8-1.3 1.2-1.4 1-2.2 1-3.2 1.8-0.4 0.3-0.7 0.7-1 1.1 0.7 0.1 1.3 0.4 2 0.7 0.2 0.1 0.4 0.2 0.4 0.4v2.4c0 0.3-0.2 1.3-1.1 2.6-0.9 1.1-1.8 2.2-2.8 3.1-0.8-0.1-1.5-0.5-1.9-1.2-0.4-0.6-0.4-1.3-0.2-1.9 0.2-0.5 0.6-0.9 1.1-1.2 0.3-0.3 1.1-0.6 1.3-1.1-0.2-0.1-0.4-0.1-0.6-0.2-0.3 0-0.6 0.1-0.9 0.1-1.4-0.1-3.1-1.1-3.8-1.6-0.1-0.1-0.3-0.2-0.5-0.2-0.2 1.3-0.8 2.4-1.5 3.5-0.4 0.7-1 1.3-1.5 2-0.8 0.9-2 1.5-2.6 2.6-0.1 0.2-0.2 0.4 0.1 0.5s0.7 0.2 1 0.3c1.4 0.1 2.8 0.3 4 0.8 0.7 0.3 1.4 0.9 1.6 1.7 0.2 0.6 0.2 1.2 0.1 1.8h-1.1c-0.9-0.1-1.9-0.2-2.8-0.2-3.5-0.3-5.9-1-6.6-1.6-0.6-0.5-1.2-0.9-1.6-1.5-0.4-0.5-0.6-1.1-0.5-1.8 0.2-0.6 0.6-1 0.9-1.4s0.6-0.8 0.8-1.3c0.3-0.5 0.6-1 0.8-1.5 0.1-0.6 0-1.2-0.5-1.6s-1.1-0.7-1.7-1c-0.6-0.2-1.5-1.4-2-2.3-0.4-0.9-0.9-2.1-1.1-3.6-0.1-0.3-0.1-1 0-1.4-0.3 0-0.6 0-0.9-0.2-1.1-0.6-1.7-0.7-2.9-2.6-1-1.3-1-3.2-0.5-4.7 0.4-1.1 1.4-2.5 2.1-2.6 0.3 0.9 0.5 1.8 1 2.7 0.2 0.4 0.5 0.6 0.8 0.8 0.3 0.3 0.7 0.6 1.1 0.6 0.6 0.1 1.1-0.2 1.6-0.4 0.9-0.4 1.7-0.9 2.5-1.4 0.8-0.6 1.5-1.3 2.3-1.8 0.4-0.3 0.9-0.6 1.4-0.8 1.2-0.6 2.6-0.9 3.9-1.2 0.8-0.2 1.7-0.2 2.6-0.2 0.9 0.1 1.8 0.2 2.7 0.4 0.7 0.1 1.3 0.4 2 0.5 0.8 0.1 1.5 0.3 2.3 0.2 0.6 0 1.3 0.1 1.8-0.3 1-0.6 1.5-1.6 1.9-2.6 0.4-1.2 0.7-2.5 1.2-3.7l-0.9 0.6c-1.7 1.4-3.8 2.2-6 2.5-2.9 0.4-5.9-0.2-8.5-1.7-0.3-0.2-0.7-0.4-1-0.7 1.1-0.7 2.2-1.3 3.3-1.9-1-0.7-2-1.6-2.8-2.6-0.4-0.5-0.5-0.6-0.5-0.7m72.7-3c2.8-0.4 5.6-0.3 8.3 0.2 1.9 0.4 3.8 1.1 5.5 2 2.8 1.5 5.4 3.6 7.6 5.9 1 1.1 2.1 2.1 3 3.3-0.2 0.5-0.5 1-0.8 1.4-0.5 0.5-1.1 0.9-1.7 1.2-0.7 0.3-1.5 0.6-2.3 0.6-0.9 0.1-1.8 0.1-2.6 0.5-1 0.4-1.7 1.2-2.3 2.1l-1.5 2.4c-0.5 0.8-0.9 1.6-1.5 2.4-0.4 0.5-0.7 1-1.1 1.5-0.7 0.7-1.4 1.4-2.2 2.1-0.1 0.1-0.2 0.3-0.3 0.5 1.2-0.4 2.1-0.2 2.6-0.2 0.8 0.2 1.4 1.5 1.5 2.2s0.1 1.4-0.1 2.6-1 2.5-1.7 3.7c-0.8 0.2-1.7 0-2.3-0.6-0.4-0.4-0.6-1-0.7-1.5-0.1-0.6 0.3-1.4 0.7-1.7 0.3-0.2 0.8-0.3 0.8-0.8-0.5 0-1.5 1-2.2 1.4s-1.9 0.3-2.7 0.1c-0.7-0.2-2.6-0.4-3.7-1.6-0.5-0.7-0.6-1-0.7-1.6-0.2-0.7-0.4-1.5-0.4-2.2-0.7-0.5-1.1-1.3-1.3-2.2-0.1-0.7 0.2-1.1 0.1-1.8 0 0-1.4 1-2 3.4-0.1 0.4-0.2 0.9-0.1 1.4 0.2 0.7 0.3 1.5 0.2 2.3-0.1 0.6-0.1 1.2-0.3 1.7-0.3 0.7-0.6 1.5-1.1 2.1-0.6 0.9-1.4 1.6-2.2 2.4-0.6 0.5-1.2 0.9-1.8 1.3l-2.4 1.2c-0.4 0.2-0.9 0.5-1.3 0.8 0.7 0.1 1.4 0.2 2.1 0.3 1.2 0.4 2.3 0.8 3.2 1.7 0.7 0.6 1.2 1.5 1.1 2.4 0 0.6-0.2 1.1-0.6 1.6-0.3 0-0.6-0.2-0.9-0.3-1.5-0.7-3-1.4-4.6-1.8-1.6-0.3-3.5-1-4.2-1.5-0.6-0.6-1.3-1.2-1.7-2-0.3-0.5-0.5-1.1-0.3-1.6 0.4-0.7 1-1.1 1.5-1.6 0.5-0.4 0.9-0.8 1.4-1.3 0.6-0.5 1.2-1.1 1.7-1.8 0.1-0.3 0.2-0.6 0.2-0.9-0.4-0.7-1.8-1-2.8-2.9-0.8-1.5-0.9-3.4-0.7-5-0.3 0-0.6 0-0.9-0.2-1.4-0.7-2-1.4-2.7-2.4-0.8-1.2-0.9-2.6-0.6-4 0.5-1.6 1.4-2.6 2.2-2.9 0.4 0.9 1 2.8 2.5 3.7 0.4 0.2 1 0.2 1.4 0.1 1.1-0.3 2.1-0.9 3-1.6 0.6-0.5 1.2-1.1 1.9-1.6 1.1-0.9 2.4-1.4 3.7-1.9 0.8-0.3 1.6-0.6 2.4-0.7 1.4-0.2 2.8-0.2 4.2-0.1 0.7 0 4.3 0.3 6.2-0.6 1.2-0.8 1.9-2 2.4-3.3 0.5-1.1 0.8-2.3 1.3-3.4l-0.9 0.6c-1.7 1.4-3.7 2.3-5.8 2.7-3.2 0.6-6.7-0.1-9.4-1.9 1-0.8 2.1-1.5 3.2-2.1-1.2-0.7-2.2-1.6-3.1-2.6 2.2-0.8 4.4-1.3 6.6-1.6m62.8-1.5c2.5-0.7 5.1-1.1 7.6-1.1 3.8 0 7.5 1.1 10.7 3.1 2.7 1.7 5.1 3.8 7.2 6.2 0.8 0.9 1.6 1.7 2.2 2.7-0.2 0.6-0.5 1.1-0.9 1.5-0.5 0.5-1.1 0.8-1.7 1.1-0.9 0.3-1.8 0.6-2.7 0.5-0.9 0-1.7 0-2.5 0.4-0.7 0.3-1.3 0.9-1.7 1.6-0.9 1.5-1.5 3.2-2.2 4.8-0.4 1-1.1 1.8-1.6 2.7 0 0.4 0.1 0.8 0.1 1.3 0.9 0.2 2.2-0.5 3-0.7 0.6-0.1 2-0.1 2.6 0.6 0.7 0.6 1.7 2 1.8 2.7 0.2 0.8 0.2 1.6 0.2 2.4 0 0.5 0 1-0.1 1.5-0.5 0.3-1.1 0.6-1.8 0.5-0.8 0-1.6-0.6-2-1.3-0.2-0.6-0.1-1.2 0-1.7 0.1-0.2-0.1-0.3-0.2-0.5-0.4 0-0.9 0.1-1.2 0.3-0.4 0.3-2.2 1.3-2.7 1.5-0.7 0.3-3.2 0.9-4.6 0.4-1.5-0.5-2.3-1.3-3.2-2.3-0.1-0.1-0.2-0.1-0.3-0.1-1.2-0.1-2.2-0.8-3-1.6-0.6-0.8-1-1.7-1.7-2.5-0.1-0.2-0.3-0.3-0.5-0.4 0 0.1-0.6 0.7-0.8 1-0.4 0.7-0.9 1.3-1.2 2.1-0.2 0.5-0.4 1.1-0.5 1.6 0 1 0 2-0.4 2.9-0.3 1.1-1 2.1-1.7 3-1.1 1.1-3.3 2.5-4 2.8-0.6 0.2-2.6 0.9-3.1 1-0.7 0.2-2.7 0.5-3.1 0.7 0.4 0.1 0.8 0.1 1.2 0.4 1 0.7 1.7 1.6 2 2.2 0.2 0.5 0.5 0.9 0.6 1.4 0.2 0.9 0.4 1.8 0 2.7-0.3 0.8-1 1.4-1.9 1.6h-0.3c-0.5-1-0.8-2.2-1.3-3.2-0.2-0.6-0.6-1.1-1-1.5-0.6-0.3-1.2-0.6-1.7-1-0.7-0.5-1.5-0.7-2-1.3-0.3-0.4-0.6-0.8-0.9-1.3s-0.7-1-0.8-1.6c0-0.3 0-0.6 0.2-0.8 0.5-0.5 1.1-0.8 1.8-1.2 0.6-0.4 1.2-0.6 1.8-0.9 0.7-0.4 3.4-2.1 3.8-2.2-0.1-0.7-0.9-0.7-1.3-1-0.4-0.4-1-1.5-1-2.5-0.1-0.8 0-2.2 0.1-2.6 0-0.4 0.1-0.7 0.2-1-0.3 0-0.6 0-0.9-0.2-1.1-0.5-1.7-1.2-2.4-2.1-0.7-1-0.9-2.4-0.7-3.6 0-0.2 0.5-1.2 0.7-1.6 0.4-0.6 0.8-1.1 1.5-1.4 0.5 1 0.9 2.1 1.9 2.8 0.4 0.3 0.8 0.6 1.3 0.7 0.4 0.1 0.9 0.1 1.3 0 0.7-0.2 1.4-0.5 1.9-0.9 0.5-0.3 0.9-0.7 1.3-1.1 1.6-1.5 3.5-2.6 5.6-3.3 0.8-0.3 1.7-0.5 2.6-0.6 1.4-0.2 2.9-0.2 4.3-0.5 0.8-0.2 1.7-0.3 2.5-0.6 0.7-0.3 1.5-0.5 2.1-1 1.3-1.1 2.3-2.6 3-4.1 0.4-0.9 0.9-1.9 1.2-2.8-0.5 0.3-1 0.6-1.4 1-2.1 1.5-4.6 2.4-7.2 2.6-2.6 0.1-5.2-0.5-7.4-1.9 1-0.8 2-1.5 3.1-2.2-1.2-0.7-2.3-1.6-3.2-2.6 1.5-0.8 2.4-1.2 3.4-1.5m71.1-2.7c2.2-0.2 4.4-0.3 6.5 0.1 3.1 0.5 5.9 1.8 8.4 3.7 1.6 1.1 3.1 2.4 4.5 3.8 1 1 2 2.1 2.9 3.2 0.3 0.4 0.7 0.9 1 1.3-0.3 1.1-1.1 1.9-2.1 2.4-1.1 0.5-2.2 0.8-3.4 0.7-1.1 0-2.2-0.1-3.1 0.5-0.8 0.5-1.2 1.3-1.5 2.1-0.6 1.6-0.8 3.2-1.3 4.8-0.1 0.2 0.1 0.4 0.3 0.5 0.5 0.3 1 0.5 1.6 0.5 1.9 0.2 3.8 0.2 5.6 0.8 1.4 0.4 2.7 1.2 3.7 2.2 0.6 0.7 1.1 1.4 1.6 2.2 0.1 0.1 0 0.2-0.1 0.3-0.3 0.6-0.9 1.1-1.5 1.3-0.8 0.2-1.6 0-2.3-0.4-0.5-0.3-0.8-0.9-1.3-1.2-1-0.6-2.1-0.6-3.2-0.4-0.8 0.1-1.5 0.4-2.2 0.7-1.4 0.5-2.8 0.9-4.3 1-1.4 0.1-2.7-0.2-4-0.7-0.3 0-0.5 0.1-0.8 0.1-1 0.1-2.1 0-3.1-0.4-0.5-0.2-0.9-0.5-1.4-0.8s-0.9-0.6-1.4-0.9c-0.7-0.4-1.3-0.8-2-1-0.8-0.1-1.6 1.1-2.1 1.6-0.6 0.6-1.1 1.4-1.4 2.2-0.3 0.9-0.4 1.9-0.8 2.7-0.3 0.6-0.6 1.2-1.1 1.7s-0.9 1.1-1.6 1.5c-0.6 0.4-1.1 0.8-1.8 1-0.8 0.3-1.6 0.7-2.4 0.9-0.9 0.2-1.9 0.5-2.8 0.5-1.2 0.2-2.4 0-3.6 0.4-0.1 0-0.4 0.1-0.4 0.2v0.7c0.3 0.7 0.8 1.2 0.8 2.2s-0.1 2.6-0.7 3.8c-0.3 0.8-0.8 1.5-1.6 1.9-0.7 0.3-1.6 0.3-2.4 0 0-0.6 0.2-1.1 0.3-1.7 0.2-0.7 0.7-2.5 0.5-3.6-0.3-1.2-1.6-2.8-1.9-3.6-0.2-0.5-0.4-1-0.6-1.6-0.2-0.4-0.3-0.8-0.3-1.2 0-0.3 0.1-0.5 0.4-0.7 1.8-0.9 4.9-1.5 5.8-1.8 0.9-0.2 2.3-1 2.8-0.9 0-0.5-0.6-0.5-0.9-1.1-0.6-1.5-0.5-2.1-0.5-2.5 0-0.7 0.1-2 0.6-3-0.3 0-0.6-0.1-0.9-0.3-0.9-0.6-1.5-1-2-1.9-0.3-0.5-0.5-1-0.7-1.8-0.1-0.8 0.1-1.9 0.5-2.7 0.3-0.5 0.8-1.1 1.3-1.4 0.5 0.8 1.1 1.6 1.9 2.2 0.6 0.4 1.2 0.8 1.9 0.9 0.8 0.2 1.7 0 2.5-0.3 0.6-0.4 1.2-0.8 1.8-1.3 1.1-0.9 2.3-1.7 3.5-2.4 1-0.5 2.1-0.9 3.2-1.3 1.5-0.3 3-0.6 4.5-1 0.5-0.1 1-0.4 1.5-0.5s1-0.3 1.4-0.5c0.8-0.4 1.6-0.8 2.2-1.4 1.4-1.2 2.4-2.8 3.2-4.4 0.5-0.9 1-1.9 1.3-2.9-0.5 0.3-1 0.6-1.4 0.9-2.2 1.6-4.8 2.5-7.5 2.5-2.5 0-4.9-0.6-7-1.8l0.2-0.2c0.9-0.7 1.9-1.4 2.9-2.1-1.2-0.7-2.3-1.6-3.2-2.5 0.7-0.3 1.4-0.6 2.1-0.8 1.9-0.4 3.6-0.8 5.4-1m65.7-0.5c2.6-0.3 5.3-0.2 7.9 0.3 3 0.6 5.9 1.9 8.4 3.7 3 2 5.7 4.6 8 7.4-0.2 1-0.9 1.9-1.8 2.5-1 0.6-2.2 0.9-3.4 1-1.1 0-2.3 0-3.3 0.5-0.8 0.4-1.3 1.3-1.5 2.1-0.3 0.9-0.5 1.9-0.4 2.8v1.1c0.8 0.5 1.7 0.4 2.6 0.6 1.9 0.3 3.8 1 5.5 1.9 0.5 0.3 1.2 0.6 1.7 0.9 1.9 1 3.5 2.4 4.6 4.3-0.2 0.9-1.1 1.7-2 1.7-1 0.1-1.9-0.3-2.6-1-0.6-0.5-1.2-1-1.9-1.4-0.7-0.3-1.3-0.7-2.1-0.8-0.8-0.2-1.6-0.3-2.4-0.2-1.6 0.1-3.8 0.6-4.6 0.8s-2.5 0.4-3.7 0.2c-0.3-0.1-0.6 0.1-0.8 0.2-1.6 0.5-3.4 0.4-4.9-0.1-0.3-0.1-0.7-0.2-1-0.4-1.1-0.5-2.3-1-3.4-1.5-1-0.5-2.1-0.9-3.2-0.9-0.5 0-0.9 0.1-1.4 0.3-0.8 0.3-1.6 0.8-2.1 1.5-0.1 0.2-0.1 0.4-0.2 0.6-0.5 1.5-1.5 2.7-2.6 3.8-1.5 1.3-3.4 2.1-5.3 2.8-0.7 0.3-1.3 0.4-2 0.7-1.4 0.4-2.9 0.8-4.1 1.6-0.9 0.6-2.5 1.7-4 3.1-0.6 0.7-1.3 1.4-2 2.2-0.5 0.6-1.1 1-1.8 1.2-0.9 0.2-1.8-0.2-2.5-0.7 0.4-0.8 0.8-1.6 1.3-2.4 0.4-0.7 0.7-1.4 1.3-2 0.3-0.4 0.6-0.9 1-1.2 0.8-0.7 1.5-1.5 2.1-2.4 0.6-0.7 0.9-1.6 1.4-2.4 0.4-0.7 1.3-0.9 2.1-1 1.3-0.3 2.6-0.7 3.5-1.8 0.7-0.9 0.8-2.1 0.7-3.2-0.3-1.9 0.1-3.8 1.1-5.4-0.5-0.1-1-0.3-1.4-0.6-1.1-0.7-1.9-1.9-2-3.2-0.1-1.2 0.4-2.4 1.3-3.2 0.8 0.6 1.7 1.1 2.6 1.6 1.8 1 4 1.2 6 0.7 0.7-0.2 1.5-0.4 2.2-0.6 1.4-0.4 2.8-0.8 4.3-1 0.7-0.1 1.5-0.2 2.2-0.2 1.8 0 3.6 0.1 5.3-0.4 0.5-0.1 1-0.2 1.5-0.4 0.8-0.3 1.5-0.7 2.1-1.3 1.2-1.2 2-2.8 2.6-4.4 0.3-0.9 0.7-1.8 1-2.7l-0.9 0.6c-1.7 1.4-3.8 2.3-6 2.6-3.2 0.5-6.5-0.3-9.2-2.1 1-0.8 2.1-1.4 3.2-2.1-1.1-0.8-2.2-1.7-3-2.7 1.5-0.9 3.7-1.4 6-1.6m59.6 0.4c2.2-0.5 4.4-0.8 6.6-0.8 4-0.1 8 0.7 11.8 2.2 4.6 1.8 8.6 4.9 11.9 8.5 0.2 0.2 0.5 0.5 0.6 0.8-0.1 0.8-0.6 1.6-1.2 2.1-0.8 0.7-1.7 1.1-2.7 1.3-1.2 0.3-2.6 0.1-3.8 0.5-0.7 0.2-1.3 0.7-1.6 1.4-0.5 1.2-0.6 2.5-0.6 3.8 0 0.5 0.1 1 0.1 1.6 0.5 0.4 1.2 0.6 1.8 0.7 2.2 0.7 4.4 1.6 6.3 2.9 0.5 0.4 1 0.8 1.6 1.2 1.7 1.2 3.2 2.7 4.1 4.5 0.1 0.2-0.1 0.3-0.1 0.5-0.4 0.7-1.2 1.1-2 1.2-0.9 0-1.8-0.4-2.4-1.1-0.3-0.3-0.5-0.6-0.8-0.9-1.1-0.9-2.3-1.7-3.6-2-0.6-0.2-1.3-0.3-1.9-0.3-0.9 0-1.8 0.2-2.6 0.3-1 0-1.9 0.1-2.9 0.2s-2-0.1-3-0.4c-1.2 0.4-2.5 0.4-3.8 0.2-1.8-0.3-3.5-1.1-5.1-1.9-1.8-0.8-3.5-1.7-5.5-2.1-1.3-0.2-2.8-0.1-3.9 0.7-0.2 0.1-0.3 0.4-0.4 0.6-0.7 1.2-1.7 2.1-2.8 2.9-1.5 1-3.2 1.5-4.9 2-0.8 0.2-1.6 0.4-2.5 0.6-1.5 0.3-3.1 0.8-4.4 1.7-1.2 0.8-2.4 1.6-3.5 2.4-0.4 0.3-0.8 0.7-1.2 1-0.5 0.4-0.9 0.8-1.4 1.1-0.7 0.5-1.5 1-2.3 0.9-0.9 0-1.6-0.5-2.2-1.1 1.2-1.4 2.2-2.9 3.6-4.2 0.2-0.2 0.4-0.5 0.7-0.7 1.2-1.1 2.4-2.3 3.3-3.7 0.5-0.6 0.9-1.4 1.7-1.6 0.7-0.3 1.4-0.2 2.1-0.5 1.3-0.3 2.4-1.2 3-2.4 0.8-1.6 0.8-3.4 1.4-5.1 0.2-0.6 0.5-1.3 1-1.7 0.1-0.1 0.3-0.3 0.4-0.5-0.5-0.1-1.1-0.2-1.6-0.5-1.2-0.7-1.9-2.1-1.8-3.5 0.1-0.8 0.4-1.7 0.9-2.4 0.8 0.4 1.7 0.7 2.6 1.1 0.7 0.4 1.5 0.6 2.3 0.8 1.8 0.5 3.7 0.6 5.6 0.6h4.3c1.4 0 2.8 0.2 4.1 0.4 1.4 0.2 2.8 0.5 4.3 0.4 0.9-0.1 1.7-0.2 2.5-0.6 1.1-0.5 1.9-1.6 2.5-2.7 0.9-1.7 1.1-3.7 1.8-5.5-1.4 1-2.9 1.9-4.5 2.4-4 1.2-8.7 0.2-11.9-2.6 1.1-0.6 2.3-1.2 3.4-1.7-1.7-0.8-2.6-1.9-3.4-3"/>
		</g>
		<path class="st4" d="m36.1 9.2c-3.4-0.4-5.4-1.9-6.4-2.8-0.6 0.2-1.1 0.5-1.7 0.8 1.8 1.7 4 2.8 6.3 3.3 2.7 0.5 5.6 0.1 8.1-1.1 0.7-0.4 1.4-0.8 2-1.3 0.1 0-3.6 1.7-8.3 1.1"/>
		<path class="st4" d="m59.4 29.1c-1.9-1.7-4.2-2.8-6.6-3.6-0.8-0.3-1.7-0.4-2.4-0.9-0.1-0.1-0.1-0.2-0.1-0.3 0-0.6-0.1-1.3-0.1-1.9 0-1 0.1-2.1 0.4-3.1 0.2-0.6 0.7-1.2 1.3-1.6 0.9-0.4 1.9-0.4 2.9-0.5 1.2-0.1 2.4-0.4 3.5-1.1 0.9-0.6 1.6-1.5 1.8-2.5-3.2-3.8-7.3-6.9-11.9-8.9-4.1-1.8-8.5-2.7-13-2.8-2 0-4 0.1-5.9 0.4 0.7 1.2 1.6 2.3 2.6 3.2 0 0 2.3 2.2 5.8 2.6 3.5 0.5 7.2-0.2 7.2-0.2-0.8 2-0.9 4.1-1.9 6-0.6 1.1-1.6 2.1-2.8 2.5-1.7 0.5-3.4 0.3-5.1-0.1-1.8-0.4-3.5-0.7-5.3-0.9-1.6-0.2-3.2-0.2-4.8-0.3s-3.3-0.3-4.8-0.7c-0.5-0.1-1-0.3-1.4-0.4-0.7-0.2-3.1-1.4-3.7-1.6-0.6 0.9-1 2.1-0.9 3.1 0.2 1.2 0.9 2.3 2 2.9 0.1 0 0.1 0.1 0.2 0.1 1.8-1.5 4.4-1.4 4.4-1.4-0.1 0-2.2 0.7-3.5 2.1l-0.1 0.1c-0.2 0.3-0.4 0.5-0.6 0.9 0 0.1-0.1 0.2-0.1 0.3-0.7 1.4-0.9 3-1.4 4.5-0.2 0.7-0.5 1.4-1 2-0.8 1-2 1.5-3.3 1.6-0.4 0-0.8 0.2-1.2 0.4-0.6 0.3-1 1-1.4 1.6-1.2 1-2.2 2.1-3.3 3.1-1.6 1.5-3 3.2-4.5 4.8 0.6 0.7 1.4 1.3 2.4 1.3s1.9-0.6 2.7-1.2c0.6-0.4 1.1-0.9 1.6-1.4 1.2-0.9 2.4-1.8 3.6-2.6 0.7-0.5 1.5-0.9 2.4-1.2 1.5-0.5 3-0.7 4.5-1.1 1.4-0.4 2.9-0.8 4.2-1.4 1.1-0.6 2.1-1.4 2.9-2.3 0.1-0.2 0.3-0.3 0.4-0.5 1.5-2.3 0.6-5.2 0.6-5.2s1.7 1.6 1.5 4.1h0.4c1.3-0.1 2.6 0.2 3.8 0.7 1.9 0.7 3.7 1.6 5.5 2.4 1.1 0.5 2.3 0.9 3.5 1.2-2-2.7-1.5-5.9-1.5-5.9s1.7 4.9 6.2 5.9c2.7 0.6 3.9 0.3 5.2 0.2 1.4-0.1 1.4-0.2 2.1-0.3 0.8-0.1 1.6 0 2.3 0.3 0.6 0.2 1.2 0.4 1.7 0.7 1.1 0.6 2.1 1.4 2.8 2.4 0.7 0.8 1.8 1.4 2.9 1.2 0.8-0.1 1.4-0.7 1.7-1.4-0.9-2.3-2.6-4-4.4-5.3"/>
		<path class="st5" d="m16.9 19.2c-0.3 0.2-0.4 0.5-0.6 0.9 0.1-0.3 0.3-0.6 0.6-0.9"/>
			<path class="st4" d="m101.8 9.8c-3.5-0.4-5.5-2-6.4-3-0.5 0.2-1.1 0.4-1.6 0.7 2.8 2.9 7 4.3 10.9 3.7 2-0.3 3.9-1.1 5.6-2.2 0.1 0-3.9 1.4-8.5 0.8"/>
			<path class="st4" d="m129.8 35.3c-1-2-2.3-3.3-4.1-4.7-0.3-0.2-0.8-0.6-1.1-0.8-1.8-1.5-4.1-2.5-6.3-3.4-0.6-0.2-1.3-0.5-1.8-0.9 0-0.7 0-1.4-0.1-2-0.1-1.2 0-2.4 0.3-3.5 0.2-0.7 0.7-1.3 1.4-1.6 1-0.4 2.1-0.3 3.2-0.5 1-0.1 2-0.4 2.9-1s1.7-1.5 1.9-2.6c-1.6-1.9-3.5-3.7-5.5-5.2-2.4-1.7-4.9-3.2-7.7-4.2-4-1.5-8.2-2.5-12.4-2.6-1.7-0.1-3.5 0-5.2 0.2 0.6 1.2 1.5 2.4 2.5 3.3 0 0 2.1 2.3 5.6 2.8s7.4 0.1 7.4 0.1c-0.9 2-0.9 4.4-2.1 6.3-0.6 1.1-1.7 2-3 2.3-1.8 0.3-3.6-0.1-5.3-0.6s-3.5-0.9-5.2-1.1c-3.5-0.5-7.1-0.5-10.4-1.8-0.8-0.2-1.5-0.7-2.2-1-0.5-0.3-1.1-0.5-1.5-0.8-0.6 0.7-1 1.5-1.1 2.4-0.1 1.3 0.5 2.7 1.6 3.4 0.1 0.1 0.2 0.2 0.4 0.2 2.2-1.4 5.1-0.8 5.1-0.8-0.1 0-3 0.2-4.6 1.9-0.6 0.8-1 1.7-1.3 2.7-0.3 1.2-0.6 2.4-1.4 3.3s-2.1 1.1-3.3 1.3c-0.8 0.1-1.5 0-2.3 0.2-0.5 0.2-0.8 0.6-1 1.1-0.4 1-0.7 2-1.2 3-0.4 1-1 2-1.5 2.9-0.9 1.5-1.9 3-2.8 4.5 0.6 0.5 1.4 0.9 2.2 0.8 0.8 0 1.4-0.4 2-0.9 1.8-1.6 2.8-3.9 4.5-5.6 0.5-0.6 1.3-0.9 2.1-1 1.2-0.1 2.3 0 3.5-0.1 1.3 0 2.7-0.1 4-0.5 1.8-0.4 3.4-1.4 4.6-2.9 1.5-2 1-4.7 1-4.7s1.3 1.6 1 3.8c1.5-0.2 2.9 0.2 4.3 0.7 2.1 0.8 4.1 1.9 6.2 2.8 1.1 0.5 2.1 0.9 3.3 1.1-1.9-3.1-1-6.4-1-6.4s1.1 4.4 4.8 6.4c0.7 0.3 2.3 0.7 3.5 0.8 1.1 0 1.9 0 2.8-0.1 0.6-0.1 1.1-0.1 1.7-0.1 0.8 0 1.6 0.2 2.4 0.5 1.4 0.4 2.6 1.3 3.7 2.2 0.5 0.4 0.9 1 1.4 1.4 0.7 0.5 1.6 0.7 2.4 0.5 0.7-0.2 1.3-0.7 1.6-1.3 0.2 0 0.1-0.1 0.1-0.2"/>
			<path class="st4" d="m167.2 12c-3.3-0.7-5.2-2.3-6.1-3.4-0.5 0.2-1.1 0.3-1.6 0.5 1.9 2.3 4.5 3.9 7.4 4.4 2.5 0.5 5.2 0.2 7.6-0.7 0.6-0.2 1.1-0.5 1.6-0.9 0 0.1-4.2 1.1-8.9 0.1"/>
			<path class="st4" d="m193.9 40.2c-0.9-1.3-2.1-2.4-3.3-3.2-0.4-0.3-1-0.4-1.3-0.8-1.9-2.1-4.3-3.7-6.6-5.5-0.3-0.2-0.6-0.5-0.8-0.8 0.3-2 0.1-4 0.6-6 0.2-0.9 0.6-1.9 1.5-2.4 1.2-0.6 2.6-0.4 3.8-0.6 1.1-0.2 2.2-0.7 3-1.4 0.5-0.5 0.9-1.2 1.1-1.9-1.6-2-3.5-3.8-5.6-5.3-2.7-2-5.6-3.5-8.7-4.7-1.8-0.7-3.7-1.4-5.6-1.9-2.5-0.7-5.2-1.1-7.8-1.4-1.2-0.1-2-0.1-3-0.1 0.5 1.3 1.3 2.5 2.3 3.6 0.5 0.5 2.3 2.5 5.4 3.1 3.5 0.8 7.6 0.8 7.7 0.8-0.8 1.7-0.8 3.7-1.5 5.5-0.3 0.9-0.8 1.7-1.5 2.3s-1.8 0.8-2.7 0.5c-1.8-0.4-3.3-1.5-4.9-2.3-1.5-0.8-3.1-1.4-4.7-1.8-2.1-0.5-4.3-0.8-6.5-1.1-2-0.3-3.9-1.1-5.3-2.5-0.5-0.4-0.8-0.9-1.2-1.4-1 0.6-1.9 1.5-2 2.7-0.3 1.4 0.3 2.9 1.5 3.7 0.1 0 0.1 0.1 0.2 0.1 2.3-1.2 5.1-0.3 5.1-0.3-0.1 0-3.2 0-4.9 1.7-0.3 0.4-0.6 0.7-0.7 1.1-0.3 0.7-0.3 1.3-0.3 1.9 0 0.9 0 1.9-0.7 2.5-0.6 0.7-1.6 1-2.4 1.2-1 0.3-2 0.4-3 0.7-0.6 0.1-0.9 0.7-1.1 1.2-0.2 0.9 0 1.9 0.1 2.8 0.2 0.7 0.6 1.4 0.9 2.1 0.4 0.9 1 1.7 1.2 2.7 0.3 1.5 0.3 3.1 0.5 4.7 0.7 0.1 1.5 0 2.1-0.5 0.6-0.4 1-1.1 1.1-1.8 0.4-1.4 0.2-2.8-0.1-4.2-0.2-0.6-0.4-1.1-0.7-1.6-0.2-0.4-0.4-0.8-0.4-1.2 0.9-0.4 1.8 0 2.6 0.2 1.7 0.3 3.4 0.4 5 0.1s3.1-1.2 4.1-2.4c0.1-0.1 0.2-0.2 0.2-0.3 1.5-2.2 0.8-4.9 0.8-4.9s1.6 1.8 1.2 4.3c0.5 0 0.9 0.2 1.4 0.4 2.1 1 3.9 2.6 5.8 4 1.3 1 2.7 1.9 4.2 2.6 0.4 0.2 0.7 0.3 1.1 0.4-1.3-3.1-0.2-6-0.2-6s0.7 4.9 4.6 7.1c0.7 0.4 1.5 0.7 2.3 0.9 0.9 0.3 1.9 0.4 2.8 0.4 0.7 0 1.3 0.1 2 0.2 1 0.2 2 0.7 2.9 1.2 0.5 0.2 1 0.6 1.4 0.9 0.6 0.4 1.1 0.8 1.7 1.2 0.7 0.5 1.2 1.2 2 1.6s1.8 0.5 2.6 0.1c0.5-0.3 1-0.8 1.1-1.4-0.1-0.4-0.3-0.6-0.4-0.8"/>
			<path class="st4" d="m232.3 15.9c-3.6-1.1-5.1-3.2-5.7-4.3-0.7 0.1-1.3 0.2-2 0.4 2.2 3.4 6.1 5.6 10.2 5.9 1.1 0.1 2.3 0 3.4-0.2 1.4-0.3 2.7-0.8 3.1-1.1 0.1 0-4.2 0.7-9-0.7"/>
			<path class="st4" d="m255.3 20.2c-1.1-1.2-2.4-2.3-3.7-3.3-2.3-1.7-4.9-3.1-7.5-4.2-1.7-0.8-3.5-1.5-5.3-2.3-2.2-0.9-4.4-1.7-6.7-2.3-1-0.3-3-0.9-5.4-1 0.4 1.5 1.2 2.8 2 4 0 0 1.8 2.8 5.3 3.9 3.6 1.1 7.7 1.4 7.7 1.4-0.2 0.4-0.4 0.8-0.5 1.3-0.4 1.7-0.3 3.6-1.1 5.2-0.3 0.7-0.8 1.2-1.5 1.5-0.4 0.1-0.8 0.1-1.2 0-0.9-0.4-1.6-1.1-2.2-1.8-0.7-0.7-1.4-1.5-2.2-2.3-1.6-1.4-3.4-2.5-5.4-3.2-0.7-0.2-1.4-0.5-2.1-0.6s-1.5-0.3-2.2-0.4c-1-0.1-2.1-0.2-3.1-0.2-1.6-0.1-3.2-0.9-4.4-2-0.6-0.5-0.9-1.2-1.4-1.8-0.8 0.4-1.5 1.1-1.9 1.9-0.3 0.7-0.3 1.5-0.2 2.3 0.2 1.1 0.9 2 1.8 2.5h0.1c1.7-1.3 3.9-1.4 3.9-1.4-0.1 0-1.9 0.7-3.2 2.1-0.4 0.5-1 1.3-0.8 2.8 0.2 1 0.2 1.4 0.4 2.1 0.2 1 0.3 2 0.1 3-0.1 0.5-0.2 0.9-0.6 1.3s-0.6 0.4-1 0.9c-0.7 0.8-0.6 1.9-0.4 2.7s0.9 1.6 1.7 2.2c1.7 1.3 3.6 2.3 4.1 2.6 1.4 0.8 2.8 1.3 4.2 1.9h0.3c0.4-0.8 0.8-1.8 0.4-2.7-0.3-0.8-1-1.3-1.7-1.8s-1.4-0.9-2.1-1.3c-0.5-0.3-0.8-0.6-1.2-0.9-0.3-0.2-0.5-0.5-0.6-0.8 0.1-0.1 0.1-0.2 0.2-0.4s0.4-0.2 0.6-0.2c0.3 0.1 0.6 0.2 0.9 0.2 1.2 0.1 2.5-0.2 3.5-0.9 0.3-0.2 0.6-0.5 0.8-0.8 0.2-0.2 0.4-0.5 0.5-0.8 1.4-2.6 0.9-5.1 0.9-5.1s1.4 1.9 1.1 4.7c0 0.3-0.1 0.6-0.1 0.9 0.1 0.2 0.2 0.3 0.4 0.5 0.4 0.4 0.7 0.9 1 1.4 1.5 2.1 2.8 4.4 4.7 6.1 0.6 0.5 1.1 0.9 1.7 1.4 0-3.5 2.2-5.5 2.2-5.5s-1.2 3.7 0.5 7.1c0.4 0.7 0.8 1.4 1.3 1.9s1.1 0.9 1.7 1.3c0.7 0.3 1.6 0.4 2.3 0.7 1.2 0.5 2 0.9 3.5 1.9 0.3 0.2 3.6 2.4 4.8 3.6 0.8 0.9 2.1 1.6 3.4 1.1 0.7-0.2 1.2-0.8 1.5-1.5 0-0.2-0.2-0.4-0.3-0.6-0.8-1.3-2-2.4-3.2-3.3-0.4-0.3-0.9-0.4-1.3-0.6-0.3-0.2-0.5-0.4-0.7-0.7-0.6-0.7-3.2-4.1-4.2-6.6-0.1-0.2-0.2-0.5-0.2-0.7s0.2-0.4 0.3-0.6c0.4-1.1 0.8-2.2 1.1-3.3 0.5-1.7 1-3.4 1.7-4.9 0.3-0.7 0.8-1.3 1.5-1.7s1.5-0.4 2.3-0.5c1.2-0.1 2.3-0.4 3.3-1 0.9-0.5 1.6-1.4 1.9-2.4-0.7-0.7-1.3-1.4-2-2"/>
			<path class="st4" d="m320.7 20.8c-3-3.1-6.7-5.5-10.8-7.2-1.5-0.7-3-1.4-4.4-2.1-2.1-1-4.3-1.9-6.5-2.7-1-0.4-2.1-0.7-3.1-1-0.6-0.2-2.4-0.6-3.3-0.7 0.3 1.5 1.1 2.9 1.9 4.2 0 0 1.7 2.8 5.3 4 3.5 1.3 7.6 1.8 7.8 1.8-0.2 0.5-0.4 1-0.5 1.5-0.1 0.6-0.1 1.3-0.3 1.9-0.2 1.1-0.5 2.3-1.2 3.2-0.5 0.7-1.3 1.3-2.2 1.3-0.8 0-1.5-0.5-2.1-0.9-1.3-1.2-2.4-2.8-3.8-3.9s-3-1.9-4.7-2.4c-0.7-0.1-1.4-0.3-2.2-0.4-1 0-2-0.2-3 0-0.5 0-1.1 0.1-1.6 0.1-1 0.1-2 0.2-2.9 0-0.5-0.1-1-0.2-1.4-0.5s-0.8-0.6-1.1-1c-0.3-0.5-0.6-1-0.8-1.6-0.1-0.2-0.2-0.4-0.4-0.6-0.3 0.2-0.6 0.3-0.8 0.6-1.6 1.3-2.1 4.1-1.1 5.9 0.2 0.3 0.3 0.4 0.7 0.9 0.4 0.4 0.9 0.7 1.4 0.9 0.8-1.6 2.2-2.6 2.3-2.6-0.1 0.1-2 2.6-1.6 5 0 0.2 0 0.3 0.1 0.5 0.2 0.8 0.5 1.5 0.8 2.3 0.2 0.6 0.5 1.2 0.6 1.8 0.1 0.8 0.2 3-0.5 4-0.2 0.5 0 1.4 0 1.5 0.3 1.6 2.7 2.7 3.7 2.9 2.5 0.4 4.1 0.5 5.6 0.8s2.9 0.8 3.3 0.8c0.2-0.4 0.3-0.9 0.3-1.3 0.1-0.8-0.3-1.6-0.9-2.1-1.1-0.9-2.6-1.3-4-1.6-1-0.1-1.9-0.4-2.9-0.7 0-0.2 0.2-0.4 0.4-0.4 0.8 0.1 1.5-0.1 2.2-0.4 0.5-0.2 0.9-0.5 1.3-0.9 0.5-0.6 0.9-1.4 1.1-2.1 0.5-2.4-0.6-5.1-0.6-5.1s1.7 1.7 1.8 4.7c0 0.5-0.2 1.5-0.4 2.2v0.1c0.4 0.8 0.7 1.7 1.1 2.6 0.7 1.5 1.5 2.9 2.6 4.1l0.6 0.6c1.1-3.7 4.5-5.2 4.5-5.2s-3 3.8-2.8 6.7c0.1 1.5 0.3 2.1 1.7 3.4 1.7 1.7 8.8 3.3 9.4 3.5 0.5 0.2 1 0.4 1.5 0.7s0.8 0.8 1 1.3c0.5 0.9 1.4 1.5 2.5 1.5 0.7 0 1.4-0.4 1.9-0.9 0.1-0.1 0.2-0.2 0.1-0.3-0.4-1.4-1-2.8-2-3.9-0.6-0.7-1.3-1.3-2-1.7-0.7-0.3-1.5-0.5-2.3-0.7-0.3-0.1-0.5-0.3-0.7-0.5-0.6-0.5-0.8-1.3-1-2-0.1-0.7-0.2-1.3-0.1-2 0.7-0.9 1.3-1.8 1.9-2.8 0.7-1.3 1.4-2.6 2-3.9 0.5-0.9 0.9-1.8 1.5-2.7 0.5-0.9 1.2-1.7 2.1-2.1 0.7-0.4 1.4-0.5 2.2-0.6 0.9-0.1 1.8-0.4 2.7-0.8 0.5-0.3 1-0.6 1.5-1 0.5-0.5 0.8-1 1-1.6-0.8-0.9-1.6-1.7-2.4-2.4"/>
			<path class="st4" d="m298 16.2c-3.4-1.2-5.2-3.2-6-4.3h-0.2c-0.5 0.1-0.9 0.2-1.4 0.3 2.3 3.8 6.6 6.2 11 6.3 1.1 0 2.3 0 3.4-0.2 1-0.2 2-0.6 2.3-0.8-0.2 0-4.5 0.3-9.1-1.3"/>
		<path class="st4" d="m363.5 35.7c-0.5-0.1-1-0.3-1.5-0.3 1.4-1.5 2.7-2.2 2.7-2.2s-0.6 1-1.2 2.5m-4.6-1.9c0.2 0.5 0.5 1.1 0.8 1.6-1.3 0.1-2.6 0.1-4 0.1 0-0.2 0-0.4 0.1-0.5 0.5-0.6 1.3-0.9 1.7-1.4 2.5-2.8 2.4-5.9 2.4-5.9s1.2 3.1-1 6.1m28.2-11.8c-1.3-1.2-2.5-2.4-3.8-3.5s-2.7-2-4.2-2.8c-1.2-0.7-2.5-1.2-3.8-1.7-1.8-0.7-3.6-1.5-5.4-2.3-2.1-0.9-4.3-1.7-6.6-2.3-1-0.3-4.2-1.1-5.4-1.2 0.3 1.5 1.2 2.8 2 4.1 0.8 0.9 2.3 2.4 5.1 3.6 4.1 1.8 7.8 1.8 8 1.8-0.2 0.5-0.4 1-0.5 1.6l-0.3 2.4c-0.2 0.6-0.4 1.2-0.8 1.8-0.4 0.5-1 1.1-1.7 1.2-1 0.1-2-0.3-2.8-0.8s-1.4-1.1-2.1-1.7c-0.5-0.4-0.9-0.9-1.4-1.2-0.4-0.3-0.7-0.5-1.1-0.8-1.8-1.1-3.8-1.7-5.9-1.7-0.8 0.1-1.7 0-2.5 0.3-0.8 0.2-1.5 0.3-2.3 0.7-1.1 0.4-2.1 0.8-3.2 1.1-0.5 0.1-0.9 0.1-1.4 0s-0.9-0.5-1.3-0.8c-0.5-0.4-0.6-1.1-0.8-1.6s-0.3-1.1-0.5-1.6c-0.3 0.1-0.7 0.3-0.9 0.6-0.4 0.4-0.8 0.8-1 1.2-0.6 1.1-0.7 2.2-0.8 2.5-0.1 1 0.1 2 0.7 2.8 0.7 0.9 1.2 1.6 2.5 2.2 0.6-2 2.3-3.3 2.3-3.3-0.1 0.1-1.2 1.9-1.4 3.8v0.2 0.6c0.5 3.1 1.7 4.3 2.2 4.8 0.4 0.5 0.9 0.9 1.2 1.4 0.4 0.8 1.4 2.8 1.4 3.7 0.1 0.3 0 0.7 0.1 1 0.2 0.3 0.6 1.2 1.8 1.7 0.5 0.3 2.3 0.7 4.6 0.2 0.8-0.1 1.5-0.4 2.3-0.5 0.9-0.1 1.9 0.1 2.8 0.3 0.1 0.8 0.1 1.6 0.4 2.3 0.5 1.2 1.2 1.7 1.6 1.9 0.5 0.3 1.2 0.5 1.8 0.7 0.7 0.2 2.4 0.8 2.6 0.8 0.5 0.1 1 0.3 1.6 0.4 0.4 0.1 0.8 0.3 1.2 0.5 0.3 0.3 0.3 0.7 0.1 1-0.3 0.7-0.7 1.4-0.6 2.1 0.1 0.6 0.4 1.3 0.9 1.6 0.6 0.5 1.5 0.6 2.2 0.4 0.5-1 0.9-2.2 1.2-3.3 0.2-0.7 0.2-1.4 0.2-2.1 0.1-0.6-0.1-1.2-0.3-1.7-0.1-0.4-0.2-0.7-0.3-1.1-0.1-0.2-0.2-0.3-0.4-0.3-0.5-0.3-1.1-0.5-1.7-0.7s-1.2-0.3-1.7-0.5c0-0.2-0.1-0.4-0.1-0.6 0.1-0.9 0.3-1.7 0.6-2.5 0.2-0.2 0.4-0.3 0.6-0.5 0.8-0.8 1.6-1.5 2.3-2.3 0.6-0.8 1.2-1.6 1.8-2.4 0.5-0.7 1-1.3 1.4-2s0.9-1.3 1.3-1.9c0.7-0.9 1.7-1.7 2.8-2 0.5-0.1 1-0.3 1.6-0.3 0.9-0.1 1.7-0.4 2.5-0.8 0.5-0.3 1-0.6 1.4-1 0.5-0.5 0.8-1.1 1-1.7-0.2-0.8-0.7-1.3-1.1-1.8m-20.9-3c1.1 0.1 2.1 0.1 3.2-0.1 2-0.3 3.3-0.9 3.8-1.2-0.7 0.1-1.4 0.2-2.2 0.2-2.6 0.1-5.7-0.3-8.1-1.5-2-1-3.8-2.3-5-3.8-0.5 0.1-1.1 0.2-1.6 0.3 2.1 3.4 5.9 5.7 9.9 6.1"/>
			<path class="st4" d="m426.6 29.2s1.2 1.3 0.8 4.8c-0.4 2.3-1.1 2.7-1.6 3.3-0.2-0.1-0.4-0.1-0.5-0.3-0.2-0.3-0.2-0.2-0.3-0.5 2-2.3 1.6-7.3 1.6-7.3m25-8.1c-0.6-0.6-1.3-1.2-1.9-1.8-2.3-2-4.8-3.8-7.6-5-1.8-0.7-3.7-1.3-5.6-1.9-2.5-0.8-5.1-1.5-7.7-2-1-0.2-3.3-0.7-5.4-0.7 0.5 1.4 1.3 2.7 2.2 3.8 0.7 0.8 2.3 2.2 5.3 3.2 4.2 1.3 7.9 0.9 7.9 0.9-0.7 0.2-1.4 0.4-2.1 0.5-2.5 0.4-5.6 0.3-8-0.6-2.1-0.8-4-1.9-5.3-3.4-0.5 0.1-1 0.3-1.5 0.4 2 2.7 5.2 4.5 8.6 5 2.3 0.3 4.7 0 6.8-0.9 0.6-0.2 1-0.6 1.5-0.9-0.2 0.5-0.4 1.1-0.4 1.6-0.1 0.7-0.1 1.5-0.3 2.2-0.2 0.6-0.5 1.1-0.8 1.6-0.5 0.4-1.2 0.8-1.9 0.7-0.6-0.1-1.2-0.2-1.8-0.5-0.5-0.3-1.1-0.5-1.6-0.8-1-0.6-2-1.4-3-2-0.7-0.5-2.5-1.2-4-1.5-0.7-0.1-2.5-0.2-3.9 0.1-1.7 0.4-3 1.2-3.4 1.4-1.2 0.7-2.2 1.5-3.4 2.2-0.4 0.2-0.8 0.6-1.3 0.7-0.4 0.1-0.7 0.1-1.1-0.1-0.6-0.4-1-1.1-1.1-1.8-0.3-0.8-0.4-1.7-0.7-2.5-0.7 0.2-1.7 1.3-2.2 2.6-0.7 1.6-0.8 3.7 0.2 5.2 0.8 1.1 1.1 1.4 2.2 2.1l0.6 0.3c0.9-2.3 2.9-3.6 2.9-3.6-0.1 0.1-1.4 1.8-1.8 3.7v0.2 0.9c0 0.1 0 0.2 0.1 0.3 0.4 1.2 0.8 1.9 1.4 3 0.6 0.9 1.4 1.9 1.8 2.3 0.2 0.3 0.5 0.3 1 0.4 1.3 0.4 3.9 1.7 4.4 2.4 0.1 0.2 0.3 0.4 0.4 0.6 0.2 0.4 0 0.8 0.2 1.2 0.3 0.5 0.7 0.9 1.3 1.1 0.1 0 0.2 0.1 0.3 0.1 0.8 0.2 1.7 0.5 4.4 0.3 2.8-0.2 5.8-0.8 7.7-1.3 0-0.4 0.1-0.9 0.2-1.1 0.2-0.6 0.5-1.3 0.9-1.7s2.7-1.8 3.6-2.7c0.5-0.5 1.1-1 1.6-1.5s0.9-1 1.4-1.5c0.6-0.6 1.1-1.3 1.6-2 0.3-0.4 0.6-0.8 1-1.2 0.6-0.6 1.2-1.1 1.9-1.4 0.9-0.5 1.9-0.6 2.9-0.8 1.2-0.2 2.3-0.8 3.3-1.6 0.6-0.5 1-1.2 1.2-2-1.4-0.8-2.2-1.5-3-2.2m-19.2 24.5c-0.1 0.4-0.3 0.8-0.7 1.1-0.6 0.4-1.2 0.8-1.7 1.4-0.3 0.5-0.4 1.1-0.3 1.7 0.2 0.8 0.7 1.4 1.4 1.7 0.2 0.1 0.5 0.3 0.7 0.1 1.1-0.8 2-1.7 2.9-2.7 0.4-0.5 0.7-1 1.1-1.5 0.6-0.9 0.8-2.2 1-3 0-0.2 0.1-0.4-0.1-0.5-0.7-0.7-1.4-1.3-2.2-1.9-1.2 0.7-2.5 1.4-4 2 0.9 0.3 1.6 0.8 1.9 1.6"/>
			<path class="st4" d="m492.2 45.8c-0.6 0.3-1.3 0.5-1.9 0.9-0.5 0.3-0.7 0.9-0.9 1.4-0.2 1 0.4 2.1 1.3 2.6 0.8-0.2 1.6-0.6 2.4-1s1.6-0.8 2.2-1.3 3-2.5 3.1-3.5c-0.1-0.2-0.2-0.5-0.3-0.7-1.4 0.3-3.5 0.9-6 1.6h0.1m27.2-23c-0.5-0.5-1-0.9-1.4-1.3-1.2-1-2.3-2.1-3.5-3.2-1.3-1.1-2.7-2.2-4.2-3-2.9-1.7-6.3-2.4-9.7-3-2.9-0.5-5.8-0.8-8.8-0.8-1.1 0-2.1 0-3.2 0.2 0.6 1.2 1.4 2.2 2.3 3.1 0.1 0.1 0.2 0.2 0.2 0.3 5.8 4.5 13.3 2.4 13.3 2.4-0.8 0.3-1.5 0.6-2.3 0.9-2 0.5-4.2 0.6-6.4 0.2-2.3-0.4-4.4-1.4-6.1-2.8-0.7 0.3-1.3 0.5-1.9 0.8 2.6 2.5 5.3 3.4 7.4 3.7 2.4 0.3 5-0.1 7.2-1.2 0.8-0.4 1.5-0.9 2.2-1.5-0.2 0.5-0.5 1.5-0.6 3.6-0.1 0.7-0.7 1.5-2.1 1.9-0.4 0.1-0.8 0-1.2-0.2-0.2-0.1-1.7-0.8-3.1-1.4-0.8 0.1-2.1 0-4-0.6-1.1-0.3-2.4-1.1-3.5-1.9-0.5 0-0.9 0.1-1.4 0.1-0.9 0.2-1.8 0.4-2.7 0.8-0.5 0.2-1 0.4-1.4 0.7-0.6 0.5-1.3 0.9-1.8 1.5-1.1 1.1-2 2.2-3.2 3.1-0.2 0.2-0.4 0.4-0.6 0.5-0.3 0.2-0.6 0.3-1 0.3-0.3 0-0.8-0.5-1.1-0.7-0.3-0.4-0.5-0.6-0.6-1.1-0.3-0.9-0.6-1.9-0.8-2.8-0.6 0.2-1 0.7-1.4 1.1-0.6 0.9-1.1 2.4-1.1 3.2-0.1 1.2 0.1 2.5 0.9 3.4 0.6 0.8 1.4 1.8 2.5 2.4 0.5-2.1 1.9-3 1.9-3s-0.7 1.9-0.2 4.8c0.5 1.2 1 2.3 1.5 3.4 0.2 0.4 1.3 2 2.6 2.8 0.3 0.3 0.7 0.1 1.1 0.1 1.4 0 4.8-0.1 5.8 0.8 0.2 0.2 0.4 0.3 0.4 0.6s-0.2 0.4-0.1 1c0.1 0.2 0.2 0.4 0.4 0.6 0.5 0.6 1 0.9 1.9 1.1 0.8 0.1 1.3 0.2 2 0.3 1.3-0.2 3.3-0.4 4.4-0.4 1.7-0.2 3.4 0.2 5.1 0.3 0.3-1 0.1-2.3-0.7-3-1-0.8-2.3-1.1-3.6-1.2-2.2-0.1-3.5-0.1-3.5-0.1s0.4-0.2 1.9-0.5c0.4-0.1 0.8-0.1 1.3-0.2l0.1-0.2c0.2-0.4 0.4-0.9 0.8-1.2 0.2-0.1 0.5-0.2 0.7-0.3l2.7-1.5c2.1-1.3 5-4.1 5.3-4.5 0.6-0.6 1.2-1.2 1.8-1.9 1-0.9 2.1-1.7 3.4-2.1 1-0.3 2-0.3 3-0.7 0.7-0.3 1.3-0.7 2-1.2 0.6-0.5 1.1-1.3 1.3-2.1 0-0.2-0.1-0.3-0.2-0.4"/>
			<path class="st4" d="m555.9 15.1c-0.6 0.3-1.1 0.5-1.7 0.8 2.1 2 5 3.2 7.9 3.4 2.2 0.1 4.3-0.3 6.3-1.4 0.8-0.4 1.5-1 2.2-1.5-0.1 0.1-6.7 4.1-14.7-1.3"/>
			<path class="st4" d="m585.7 21.9c-0.4-0.5-0.9-0.9-1.4-1.4-1.2-1.1-2.4-2.3-3.6-3.3-1.2-1.1-2.5-2.1-4-3-1.4-0.9-3-1.5-4.6-2-5-1.5-10.4-1.9-15.6-1.3-0.6 0.1-1.1 0.2-1.7 0.3 0.7 1.2 1.7 2.3 2.7 3.2 8.6 3.7 13.1 1.8 13.1 1.8-0.2 0.6-0.4 1.2-0.5 1.8-0.2 0.9-0.3 1.8-0.7 2.6-0.2 0.4-0.4 0.8-0.8 1.1-0.3 0.2-0.6 0.4-0.9 0.5-0.5 0.2-1 0-1.4-0.1s-0.9-0.2-1.3-0.3c-0.5-0.2-1.1-0.3-1.6-0.6-0.6-0.3-1.2-0.5-1.8-0.8-0.7-0.3-1.4-0.4-2.1-0.6-0.7-0.1-1.4-0.1-2.1-0.2-1.3 0.1-2.6 0.4-3.9 0.8-0.8 0.3-1.7 0.6-2.4 1.2-1.2 0.7-2 1.8-3.2 2.5-0.6 0.4-1.1 0.8-1.7 1.1-0.5 0.2-0.9 0.6-1.4 0.7-0.3 0.1-0.7 0-1.1-0.1-0.6-0.4-0.9-0.6-1.2-1.5s-0.6-1.8-0.8-2.7l-0.6 0.3c-1.2 1-1.5 1.9-1.6 2.4-0.5 1.6-0.4 3.5 0.6 4.9 0.7 1 1.7 1.7 2.6 2.4 0.7-2.2 2.7-3.5 2.7-3.5s-1.2 1.9-1.3 4.8c0 0.1 0.2 2.9 3.5 6.7 0.7 0.6 1.6 0.7 2.3 0.9 1.5 0.5 2.9 1.2 4.2 2 0.2 0.1 0.7 0.6 0.8 0.9-0.2 0.2-0.5 0.4-0.8 0.6-0.4 0.9-0.2 1.9 0.5 2.6 2 2.3 5.8 4.5 7.3 4.6 2.6 0 3.4-0.4 4.2-0.5 0-0.6-0.2-1.2-0.4-1.7-0.3-0.7-1-1.1-1.7-1.3-1.7-0.2-2.5-0.7-2.8-1 0.8-0.5 2.1-1.8 2.5-2.6 0.5-0.8 0.7-1.5 1-2.2 0.1-0.1 0.1-0.3 0.1-0.4-0.4-0.6-1.3-1.3-1.9-1.7-0.6 0.6-1.6 1.4-3.2 2.1l0.3 0.6v0.3c-0.2 0.2-0.3 0.5-0.6 0.6-0.1-0.7-0.1-1.4-0.1-2 0 0 2.5-3.5 3-4.7 0.3-0.6 2.5-0.2 4.1-0.9 3-1.2 5.2-3.2 5.8-3.8l3.4-3.4c0.6-0.8 1.4-1.4 2.3-1.9s2-0.8 3-0.9c0.7-0.1 1.4-0.3 2.1-0.7 0.4-0.2 0.8-0.5 1.1-0.8 0.5-0.4 0.9-0.9 1.3-1.5 0.2-0.3 0.4-0.6 0.3-0.9"/>
		<path class="st4" d="m621.9 14.7c-0.5 0.3-1 0.6-1.5 1 0.3 0.3 0.6 0.5 1 0.7 2.5 1.5 5.5 2.1 8.5 1.7 2.2-0.3 4.3-1.2 6-2.5l0.9-0.6c-0.4 0-7.2 4-14.9-0.3"/>
		<path class="st4" d="m651.8 19.9c-1-1.1-2.1-2.1-3.2-3.2-2.2-2.2-4.7-4.2-7.6-5.6-3.7-1.7-7.9-2.4-12.1-2.2-2.6 0.1-5.2 0.5-7.7 1.3 0 0.1 0.1 0.2 0.2 0.3 0.8 1 1.7 1.8 2.8 2.6 8.4 3.6 12.9 1.2 13 1.1-0.4 1.2-0.7 2.5-1.2 3.7-0.4 1-1 2-1.9 2.6-0.5 0.4-1.2 0.3-1.8 0.3-0.8 0.1-1.5-0.2-2.3-0.2-0.7-0.1-1.4-0.3-2-0.5-0.9-0.3-1.8-0.3-2.7-0.4-0.9 0-1.7 0-2.6 0.2-1.3 0.3-2.7 0.7-3.9 1.2-0.5 0.2-0.9 0.5-1.4 0.8-0.8 0.5-1.5 1.2-2.3 1.8-0.8 0.5-1.6 1-2.5 1.4-0.5 0.3-1 0.5-1.6 0.4-0.5 0-0.8-0.3-1.1-0.6-0.3-0.2-0.6-0.5-0.8-0.8-0.4-0.9-0.7-1.8-1-2.7-0.7 0.2-1.7 1.5-2.1 2.6-0.5 1.5-0.4 3.3 0.5 4.7 1 1.6 1.6 1.9 2.5 2.3 0.7-1.8 2.1-2.9 2.1-2.9s-0.7 1.3-0.8 3.3c0 0.4-0.1 1 0 1.4 0.2 1.6 0.7 2.7 1.1 3.6s1.4 2.1 2 2.3c0.6 0.3 1.2 0.6 1.7 1s0.6 1 0.5 1.6-0.5 1-0.8 1.5c-0.2 0.4-0.5 0.8-0.8 1.3s-0.7 0.9-0.9 1.4c-0.1 0.6 0.1 1.3 0.5 1.8 0.4 0.6 1 1 1.6 1.5 0.7 0.6 3.1 1.3 6.6 1.6 0.9 0.1 1.9 0.2 2.8 0.2 0.4 0 0.7 0.1 1.1 0 0.1-0.6 0.1-1.2-0.1-1.8-0.2-0.8-0.9-1.3-1.6-1.7-1.3-0.6-2.7-0.7-4.1-0.8-0.3-0.1-0.7-0.1-1-0.3-0.2-0.1-0.2-0.4-0.1-0.5 0.7-1.1 1.8-1.7 2.6-2.6 0.5-0.6 1.1-1.2 1.5-2 0.6-0.9 1.1-1.9 1.4-3v-0.2-0.2-0.2c0.6-2.8 0-5.5 0-5.5s1.8 2.4 1.4 6.3c0.8 0.5 2 1 3 1 0.3 0.1 0.6-0.1 0.9-0.1 0.2 0 0.4 0.1 0.6 0.2-0.2 0.5-1 0.9-1.3 1.1-0.4 0.4-0.9 0.7-1.1 1.2-0.2 0.6-0.2 1.4 0.2 1.9 0.4 0.7 1.1 1.1 1.9 1.2 1.1-0.9 2-2 2.8-3.1 1-1.3 1.1-2.3 1.1-2.6v-2.4c0-0.2-0.2-0.3-0.4-0.4-0.6-0.3-1.2-0.7-2-0.7 1.2-1.6 2-3.4 2-3.4s0.3 0.7 0.2 1.7c0.6-0.3 1.2-0.5 2.1-1.1 0.5-0.3 0.9-0.8 1.3-1.2 0.6-0.5 1.2-1.1 1.7-1.7 0.6-0.7 1.3-1.3 1.8-2.1 0.5-0.7 1.1-1.3 1.6-2 0.6-0.7 1.3-1.3 2.2-1.7 0.8-0.4 1.8-0.6 2.7-0.7 1-0.1 2-0.5 2.8-1.1 0.9-0.5 1.6-1.4 1.9-2.4 0.3 0.5 0.2 0.3 0.1 0.2"/>
		<path class="st6" d="m637.2 14.2"/>
			<path class="st4" d="m689.4 12.2c-0.7 0.4-1.3 0.9-1.9 1.3 2.8 1.8 6.2 2.4 9.4 1.9 2.1-0.4 4.1-1.3 5.8-2.7l0.9-0.6c-0.4 0.3-6.9 3.8-14.2 0.1"/>
			<path class="st4" d="m715.5 15.2c-2.2-2.3-4.8-4.4-7.6-5.9-1.7-0.9-3.6-1.6-5.5-2-2.7-0.6-5.6-0.6-8.3-0.2-2.2 0.3-4.4 0.8-6.4 1.7 0.5 0.6 1.1 1.1 1.7 1.6 0.4 0.2 0.9 0.4 1.4 0.6 8.2 3.5 12.6 1.3 13 1.1-0.4 1.1-0.8 2.3-1.3 3.4-0.5 1.3-1.3 2.5-2.4 3.3-1.9 1-5.5 0.7-6.2 0.6-1.4-0.1-2.8-0.2-4.2 0.1-0.8 0.1-1.6 0.4-2.4 0.7-1.3 0.5-2.6 1.1-3.7 1.9-0.7 0.5-1.3 1.1-1.9 1.6-0.9 0.7-1.9 1.3-3 1.6-0.5 0.1-1 0.1-1.4-0.1-1.5-0.9-2.1-2.8-2.5-3.7-0.8 0.4-1.7 1.3-2.2 2.9-0.4 1.3-0.2 2.8 0.6 4 0.6 0.8 1.1 1.5 2.1 2.1 0.9-2.2 3.1-3.3 3.1-3.3s-1.1 1.5-1.6 3.8c-0.2 1.7-0.1 3.5 0.7 5 1 1.9 2.4 2.2 2.8 2.9 0 0.3-0.1 0.6-0.2 0.9-0.4 0.7-1 1.2-1.7 1.8-0.4 0.4-0.9 0.8-1.4 1.3s-1.2 1-1.5 1.6c-0.2 0.5 0 1.1 0.2 1.6 0.5 0.7 1.1 1.4 1.7 2 0.7 0.5 2.6 1.2 4.2 1.5s3.1 1.1 4.6 1.8c0.3 0.1 0.6 0.3 0.9 0.3 0.4-0.4 0.5-1 0.6-1.6 0.1-0.9-0.5-1.8-1.1-2.4-0.9-0.9-2.1-1.3-3.2-1.7-0.7-0.1-1.4-0.2-2.1-0.3 0.4-0.3 0.8-0.5 1.3-0.8 0.8-0.3 1.6-0.7 2.4-1.2 0.6-0.4 1.2-0.8 1.8-1.3 0.8-0.7 1.6-1.5 2.2-2.4 0.5-0.6 0.8-1.4 1.1-2.1 0.2-0.6 0.3-1.2 0.3-1.7s0-0.9-0.1-1.4c-0.5-2.7-2-5-2-5s1.2 0.7 2.2 2.3c0.7-1.1 1.9-1.8 1.9-1.8 0.1 0.7 0.6 3.1 0.8 3.8 0.2 0.6 0.4 1.9 1.3 2.8 1.1 1.2 2.6 1.5 3.7 1.6 1.8 0.2 4.3-1.5 4.8-1.6 0 0.4-0.5 0.6-0.8 0.8-0.4 0.3-0.8 1-0.7 1.7 0.1 0.6 0.3 1.1 0.7 1.5 0.6 0.6 1.5 0.8 2.3 0.6 0.7-1.2 1.4-2.5 1.7-3.7 0.2-1.2 0.2-1.9 0.1-2.6s-0.7-2.1-1.5-2.2c-0.5 0-1.3-0.2-2.6 0.2l0.1-0.1c0-0.1 0-0.1 0.1-0.2 0.5-1.1 0.8-2.3 1.1-3.4 0 0 0.5 0.7 0.6 1.9l0.7-0.7c0.4-0.5 0.7-1 1.1-1.5l1.5-2.4 1.5-2.4c0.5-0.9 1.3-1.7 2.3-2.1 0.8-0.4 1.7-0.4 2.6-0.5 0.8-0.1 1.6-0.3 2.3-0.6 0.6-0.3 1.3-0.7 1.7-1.2 0.4-0.4 0.7-0.9 0.8-1.4-1.1-1.3-2.1-2.3-3.1-3.4"/>
			<path class="st4" d="m782.5 13.9c-2.1-2.4-4.5-4.5-7.2-6.2-3.2-2-7-3.1-10.7-3.1-2.6 0-5.2 0.4-7.6 1.1-1 0.3-1.9 0.7-2.9 1.1 0.9 1 2 1.8 3.2 2.6 7 3 11.2 1.5 12.5 0.8 0.1-0.1 0.2-0.1 0.3-0.2l0.1-0.1c-0.4 1-0.8 1.9-1.2 2.8-0.7 1.6-1.6 3.1-3 4.1-2.5 1.6-7.5 1.8-8.9 2-0.9 0.1-1.7 0.4-2.6 0.6-2 0.8-3.9 1.9-5.6 3.3-0.4 0.4-0.8 0.8-1.3 1.1-0.5 0.5-1.2 0.8-1.9 0.9-0.4 0.1-0.9 0.1-1.3 0-0.5-0.1-0.9-0.4-1.3-0.7-0.9-0.7-1.3-1.8-1.9-2.8-0.6 0.3-1.1 0.8-1.5 1.4-0.2 0.3-0.7 1.4-0.7 1.6-0.3 1.2-0.1 2.6 0.7 3.6 0.5 0.7 1 1.4 1.8 1.8 1-2.1 3.3-3 3.3-3s-1.6 1.7-2.1 4.7c-0.1 0.6-0.2 1.7-0.1 2.4 0.4 2.6 2.3 2.9 2.4 3.5-0.4 0.1-3.1 1.8-3.8 2.2-0.6 0.3-3.1 1.6-3.6 2.1-0.2 0.2-0.2 0.5-0.2 0.8 0.1 0.6 0.4 1.1 0.8 1.6 0.3 0.4 0.6 0.8 0.9 1.3 0.5 0.6 2.5 1.4 3.7 2.3 0.5 0.4 0.8 0.9 1 1.5 0.5 1.1 0.8 2.2 1.3 3.2h0.3c0.8-0.2 1.6-0.8 1.9-1.6 0.3-0.9 0.2-1.8 0-2.7-0.2-0.5-0.4-1-0.6-1.4-0.3-0.5-1.3-2-3.2-2.6 0.3-0.2 2.4-0.5 3.1-0.7 3.9-1.1 6.1-2.7 7.1-3.8 0.7-0.9 1.7-2.8 2-5.2 0.2-2 2.5-3.7 5.1-4.6 2 2.9 2.8 3.9 2.8 4 0.9 1 1.7 1.8 3.2 2.3s3.9-0.1 4.6-0.4c0.4-0.2 2.2-1.1 2.7-1.5 0.3-0.3 0.8-0.3 1.2-0.3 0.1 0.2 0.2 0.3 0.2 0.5-0.2 0.6-0.2 1.2 0 1.7 0.4 0.7 1.1 1.3 2 1.3 0.6 0.1 1.2-0.2 1.8-0.5 0.1-0.5 0.1-1 0.1-1.5 0-0.8-0.1-1.6-0.2-2.4-0.2-1.1-1.1-2.2-1.8-2.7-0.6-0.6-2-0.7-2.6-0.6-0.8 0.1-2.1 0.9-3 0.7 0-0.4-0.1-0.8-0.1-1.3 0.5-0.9 1.2-1.7 1.6-2.7 0.7-1.6 1.3-3.3 2.2-4.8 0.4-0.7 1-1.3 1.7-1.6 0.8-0.4 1.7-0.4 2.5-0.4 0.9 0 1.8-0.2 2.7-0.5 0.6-0.3 1.2-0.6 1.7-1.1 0.4-0.4 0.7-0.9 0.9-1.5-0.9-0.6-1.7-1.5-2.5-2.4"/>
			<path class="st4" d="m755.5 10.8c-0.6 0.4-1.2 0.8-1.7 1.3 2.2 1.3 4.8 2 7.4 1.9s5.1-1 7.2-2.6c0 0 1-0.8 0.9-0.8-1.5 0.9-7.3 3.6-13.8 0.2"/>
			<path class="st4" d="m822.1 8.5l-1.2 0.9-0.2 0.2c2.1 1.2 4.6 1.8 7 1.8 2.7-0.1 5.3-0.8 7.5-2.4l1.2-0.9c-1.1 0.7-7.4 4-14.3 0.4"/>
			<path class="st4" d="m852.4 31.7c-0.4-0.8-0.9-1.6-1.6-2.2-1-1.1-2.3-1.8-3.7-2.2-1.8-0.6-3.8-0.6-5.6-0.8-0.6 0-1.1-0.3-1.6-0.5-0.1-0.1-0.4-0.3-0.3-0.5 0.5-1.6 0.7-3.3 1.3-4.8 0.3-0.8 0.7-1.6 1.5-2.1 0.9-0.6 2.1-0.5 3.1-0.5 1.2 0 2.4-0.2 3.4-0.7s1.8-1.3 2.1-2.4c-0.3-0.5-0.7-0.9-1-1.3-0.9-1.1-1.9-2.2-2.9-3.2-1.4-1.4-2.9-2.7-4.5-3.8-2.5-1.8-5.4-3.1-8.4-3.7-2.2-0.4-4.3-0.3-6.5-0.1-1.7 0.1-3.4 0.6-5.1 1.1-0.7 0.2-1.4 0.5-2.1 0.8 1 1 2.1 1.8 3.2 2.5 7.5 3.2 11.7 1.3 12.7 0.7 0.1 0 0.1-0.1 0.2-0.1-0.4 1-0.9 1.9-1.3 2.9-0.8 1.6-1.8 3.2-3.2 4.4-1.9 1.6-4.7 2.3-5.2 2.4-1.5 0.4-3 0.6-4.5 1-1.1 0.3-2.1 0.8-3.2 1.3-1.2 0.7-2.4 1.5-3.5 2.4-0.6 0.5-1.1 0.9-1.8 1.3-0.8 0.3-1.6 0.5-2.5 0.3-0.7-0.1-1.3-0.5-1.9-0.9-0.8-0.6-1.3-1.4-1.9-2.2-0.6 0.3-1 0.8-1.3 1.4-0.4 0.8-0.7 1.9-0.5 2.7 0.1 0.8 0.3 1.3 0.7 1.8 0.4 0.8 0.9 1.2 1.6 1.7 1.2-1.7 3.2-2.4 3.2-2.4s-1.3 1.2-2 3.4c-0.3 0.9-0.4 1.9-0.4 2.5 0 2.2 1.4 3 1.4 3.6-1 1-5 0.8-8.6 2.7-0.2 0.1-0.3 0.4-0.4 0.7l0.3 1.2c0.2 0.5 0.4 1 0.6 1.6 0.3 0.8 1.6 2.4 1.9 3.6 0.3 1.1-0.3 2.9-0.5 3.6-0.1 0.6-0.3 1.1-0.3 1.7 0.8 0.2 1.6 0.3 2.4 0 0.8-0.4 1.3-1.1 1.6-1.9 0.6-1.2 0.9-2.3 0.7-3.8-0.1-0.9-0.5-1.4-0.8-2.2-0.1-0.2-0.1-0.5 0-0.7 0-0.1 0.2-0.2 0.4-0.2 1.2-0.4 5-0.3 8.8-1.7 0.6-0.2 1.2-0.7 1.8-1 1.4-1 2.3-2.6 2.6-3.2 0.4-0.7 0.5-1.6 0.7-2.4 0.3-1.9 0.2-3.5 0.2-3.5s0.5 0.9 0.7 2.3c1.4-1 4.3-2.6 5.6-3.1-1-1.6-1.1-2.9-1.1-2.9s1.3 2.1 3.4 3.7c1.5 0.9 3.3 2.3 3.5 2.3 1.2 0.5 2.6 0.8 4 0.7 1.5-0.1 2.9-0.5 4.3-1 0.7-0.2 1.4-0.6 2.2-0.7 1.1-0.2 2.3-0.2 3.2 0.4 0.5 0.3 0.8 0.9 1.3 1.2 0.7 0.4 1.5 0.6 2.3 0.4 0.7-0.2 1.2-0.7 1.5-1.3-0.2 0-0.1-0.2-0.2-0.3"/>
			<path class="st4" d="m888.2 7.8c-0.5 0.3-1.6 1.2-2.1 1.6 2.7 1.8 6 2.5 9.2 2.1 2.2-0.3 4.3-1.2 6-2.6l0.9-0.6c-0.2 0.2-6.4 3.7-14-0.5"/>
			<path class="st4" d="m917.1 27.1c-0.5-0.3-1.1-0.7-1.7-0.9-1.7-0.9-3.6-1.5-5.5-1.9-0.9-0.2-1.8-0.1-2.6-0.6v-1.1c-0.1-1 0.1-1.9 0.4-2.8s0.7-1.7 1.5-2.1c1-0.5 2.2-0.4 3.3-0.5 1.2 0 2.4-0.4 3.4-1 0.9-0.5 1.6-1.4 1.8-2.5-2.3-2.8-5-5.4-8-7.4-2.5-1.7-5.4-3-8.4-3.7-2.6-0.6-5.3-0.6-7.9-0.3-2.2 0.3-4.4 0.7-6.5 1.5 0.9 1 1.9 1.9 3 2.7 8.4 3.6 12.7 1.1 12.9 0.9-0.3 0.9-0.7 1.8-1 2.7-0.6 1.6-1.4 3.2-2.6 4.4-0.6 0.6-1.3 1-2.1 1.3-0.5 0.2-1 0.3-1.5 0.4-1.7 0.5-3.6 0.4-5.3 0.4-0.7 0-1.5 0.1-2.2 0.2-1.5 0.2-2.9 0.6-4.3 1-0.7 0.2-1.5 0.5-2.2 0.6-2 0.5-4.1 0.3-6-0.7-0.9-0.5-1.8-1-2.6-1.6-0.8 0.8-1.3 2-1.3 3.2 0.1 1.3 0.9 2.6 2 3.2h0.1c1.5-1.5 3.7-1.8 3.7-1.8s-1.5 1-2.7 3c-0.8 1.5-1 3.1-0.7 4.8 0.1 1.1 0 2.3-0.7 3.2-0.8 1.1-2.2 1.6-3.5 1.8-0.8 0.1-1.6 0.3-2.1 1-0.5 0.8-0.9 1.7-1.4 2.4-2.4 3.5-5.6 6.5-5.6 8 0.7 0.5 1.6 0.9 2.5 0.7 0.7-0.1 1.3-0.6 1.8-1.2 0.7-0.7 1.3-1.4 2-2.2 1.5-1.4 3.2-2.5 4-3.1 1.2-0.8 2.7-1.2 4.1-1.6 0.7-0.2 1.3-0.4 2-0.7 1.8-0.7 3.7-1.5 5.3-2.8 1.1-1.1 2.1-2.3 2.6-3.8 0.1-0.1 0.1-0.3 0.1-0.4s0.1-0.2 0.1-0.3c1-2.8 0.7-5.8 0.7-5.8s1.1 1.8 0.9 4.6c0.2-0.1 0.3-0.1 0.5-0.2 0.4-0.2 0.9-0.3 1.4-0.3 1.1-0.1 2.2 0.4 3.2 0.9 2.6 1.2 4.4 1.6 5.8 1.6-0.7-1.1-0.7-2.2-0.7-2.2s2.1 1.6 4.6 2.3c0.2 0.1 0.4 0.1 0.5 0.1 1.2 0.2 3 0 3.7-0.2 0.8-0.2 2.9-0.7 4.6-0.8 0.8-0.1 1.6 0 2.4 0.2 0.7 0.1 1.4 0.5 2.1 0.8 0.7 0.4 1.3 0.8 1.9 1.4 0.7 0.7 1.7 1.1 2.6 1 1-0.1 1.8-0.8 2-1.7-0.8-1.6-2.5-3-4.4-4.1"/>
			<path class="st4" d="m987.8 33.6c-0.9-1.9-3-3.8-5.6-5.7-1.9-1.4-4.1-2.2-6.3-2.9-0.6-0.2-1.3-0.3-1.8-0.7 0-0.5 0-1-0.1-1.6-0.1-1.3 0-2.6 0.6-3.8 0.3-0.7 0.9-1.2 1.6-1.4 1.2-0.4 2.6-0.2 3.8-0.5 1-0.2 2-0.6 2.7-1.3 0.6-0.5 1.1-1.3 1.2-2.1-0.2-0.3-0.4-0.5-0.6-0.8-3.3-3.6-7.3-6.7-11.9-8.5-3.7-1.5-7.7-2.2-11.8-2.2-2.2 0-4.4 0.3-6.6 0.8 0.8 1.1 3.2 5.1 7.9 5.9 4 0.6 7.7-0.9 7.8-0.9-0.8 1.8-1 3.7-1.8 5.5-0.5 1.1-1.4 2.1-2.5 2.7-0.8 0.4-1.7 0.5-2.5 0.6-1.4 0.1-2.9-0.1-4.3-0.4-1.4-0.2-2.7-0.4-4.1-0.4h-4.3c-1.9 0-3.8-0.1-5.6-0.6-0.8-0.2-1.6-0.4-2.3-0.8-0.8-0.4-1.7-0.7-2.6-1.1-0.5 0.7-0.8 1.5-0.9 2.4-0.1 1.4 0.7 2.7 1.8 3.5 0 0 0.1 0 0.1 0.1 2.3-1.5 4.1-1.4 4.1-1.4-0.9 0.2-2 1.1-2.6 1.8-0.1 0.2-0.8 0.8-1.4 2.2-0.6 1.6-0.6 3.5-1.4 5.1-0.6 1.2-1.7 2-3 2.4-0.7 0.2-1.4 0.2-2.1 0.5-0.8 0.2-1.2 1-1.7 1.6-0.9 1.4-2 2.6-3.3 3.7-0.3 0.2-0.5 0.4-0.7 0.7-1.3 1.3-2.4 2.8-3.6 4.2 0.6 0.6 1.3 1.1 2.2 1.1 0.9 0.1 1.7-0.4 2.3-0.9 0.5-0.3 0.9-0.7 1.4-1.1 0.4-0.3 0.7-0.7 1.2-1 1.1-0.9 2.4-1.6 3.6-2.4 1.3-0.9 2.9-1.4 4.4-1.7 0.8-0.2 1.7-0.4 2.5-0.6 1.7-0.5 3.5-1 4.9-2 0.7-0.5 1.3-1 1.9-1.6l0.1-0.1c0.3-0.4 0.6-0.7 0.8-1.2 0.1-0.1 0.2-0.3 0.2-0.4 1-1.9 0.9-3.7 0.9-4.4 0 0 1.4 1.3 1.3 3.5 0.7-0.1 1.3-0.1 2 0 2 0.3 3.7 1.2 5.5 2.1 1.6 0.7 3.2 1.5 4.9 1.8-1.4-2-1-5.1-1-5.1 0.4 0.8 1.8 4 5 5 1 0.3 2 0.4 3 0.4 1-0.1 1.9-0.2 2.9-0.2 0.9-0.1 1.7-0.3 2.6-0.3 0.7 0 1.3 0.1 1.9 0.3 1.4 0.3 2.6 1.1 3.6 2 0.3 0.3 0.6 0.6 0.8 0.9 0.6 0.7 1.5 1.2 2.4 1.1 0.8 0 1.6-0.5 2-1.2 0.5-0.3 0.6-0.5 0.5-0.6"/>
			<path class="st4" d="m958.3 9.9c-1.6-0.4-3.3-1.4-4.5-2.7-0.6 0.3-1.2 0.6-1.9 1 3.2 2.8 7.8 3.8 11.9 2.6 1.7-0.5 3.2-1.3 4.5-2.4-0.7 0.4-1.4 0.8-2.2 1.1-2.6 0.8-5.5 0.9-7.8 0.4"/>
	</g>
</g>
		<path class="st7" d="m36.6 35.7c0.3-0.2 0.5-0.4 0.8-0.6-0.4-6-0.3-12.6-1.8-16-2.6-5.8-9.2-8.4-9.2-8.4l-18.3-5.3s2.9 1.9 2.6 7c-1 14.7-2.1 23.2 9.5 28.3 5 0.1 12.9-2.2 16.4-5z"/>
		<path class="st8" d="m48.6 30.8s-2.6-1.2-7.3 1.5c-1.2 0.7-2.5 1.7-4 2.8 0 0.3 0 0.7 0.1 1 0.4 4.6 1.5 8.9 3.7 10.6l-20.8-6.1 20.9 6.1c7.1 3.2 11.9-3.1 16.3-9 2.7-3.5 5.3-2.8 5.3-2.8l-14.2-4.1z"/>
		<path class="st7" d="m37.4 36.1c0-0.3 0-0.7-0.1-1-0.2 0.2-0.5 0.4-0.8 0.6-3.5 2.7-11.4 5.1-16.3 4.9l20.8 6.1c-2.1-1.6-3.2-6-3.6-10.6z"/>
		<path class="st9" d="m37.4 36.1c0-0.3 0-0.7-0.1-1-0.2 0.2-0.5 0.4-0.8 0.6-3.5 2.7-11.4 5.1-16.3 4.9l20.8 6.1c-2.1-1.6-3.2-6-3.6-10.6z"/>
		<path class="st7" d="m104.5 35.3c0.2-0.2 0.5-0.4 0.7-0.6-0.4-5.7-0.3-12-1.7-15.2-2.5-5.5-8.7-8-8.7-8l-17.3-5s2.8 1.8 2.5 6.6c-1 14-2 22.1 9 26.8 4.6 0.2 12.1-2 15.5-4.6z"/>
		<path class="st8" d="m115.9 30.6s-2.5-1.1-6.9 1.4c-1.1 0.7-2.4 1.6-3.8 2.7 0 0.3 0 0.6 0.1 0.9 0.3 4.4 1.4 8.5 3.5 10.1l-19.8-5.7 19.8 5.8c6.8 3 11.3-2.9 15.5-8.5 2.5-3.4 5-2.6 5-2.6l-13.4-4.1z"/>
		<path class="st7" d="m105.3 35.7c0-0.3 0-0.6-0.1-0.9-0.2 0.2-0.5 0.4-0.7 0.6-3.3 2.6-10.8 4.8-15.5 4.7l19.8 5.8c-2.1-1.8-3.2-5.9-3.5-10.2z"/>
		<path class="st9" d="m105.3 35.7c0-0.3 0-0.6-0.1-0.9-0.2 0.2-0.5 0.4-0.7 0.6-3.3 2.6-10.8 4.8-15.5 4.7l19.8 5.8c-2.1-1.8-3.2-5.9-3.5-10.2z"/>
		<path class="st7" d="m170.4 34.8c0.2-0.2 0.5-0.4 0.7-0.5-0.4-5.4-0.2-11.3-1.6-14.4-2.3-5.2-8.3-7.6-8.3-7.6l-16.4-4.8s2.6 1.7 2.3 6.3c-0.9 13.2-1.9 20.9 8.6 25.4 4.4 0.2 11.5-1.9 14.7-4.4z"/>
		<path class="st8" d="m181.2 30.4s-2.4-1-6.6 1.4c-1.1 0.6-2.3 1.5-3.6 2.6 0 0.3 0 0.6 0.1 0.9 0.3 4.1 1.4 8 3.3 9.5l-18.8-5.5 18.8 5.5c6.4 2.9 10.7-2.8 14.6-8.1 2.4-3.2 4.7-2.5 4.7-2.5l-12.5-3.8z"/>
		<path class="st7" d="m171.1 35.2c0-0.3 0-0.6-0.1-0.9-0.2 0.2-0.4 0.4-0.7 0.5-3.2 2.5-10.3 4.6-14.7 4.4l18.8 5.5c-1.9-1.5-3-5.4-3.3-9.5z"/>
		<path class="st9" d="m171.1 35.2c0-0.3 0-0.6-0.1-0.9-0.2 0.2-0.4 0.4-0.7 0.5-3.2 2.5-10.3 4.6-14.7 4.4l18.8 5.5c-1.9-1.5-3-5.4-3.3-9.5z"/>
		<path class="st7" d="m236.3 34.3c0.2-0.2 0.4-0.3 0.6-0.5-0.3-5.1-0.2-10.7-1.5-13.6-2.2-4.9-7.8-7.1-7.8-7.1l-15.5-4.5s2.5 1.6 2.2 5.9c-0.9 12.5-1.8 19.7 8.1 24 4.2 0.2 10.9-1.8 13.9-4.2z"/>
		<path class="st8" d="m246.5 30.1s-2.2-1-6.2 1.3c-1 0.6-2.1 1.5-3.4 2.4 0 0.3 0 0.6 0.1 0.8 0.3 3.9 1.3 7.6 3.1 9l-17.7-5.2 17.7 5.2c6 2.7 10.1-2.6 13.8-7.6 2.3-3 4.5-2.4 4.5-2.4l-11.9-3.5z"/>
		<path class="st7" d="m237 34.7c0-0.3 0-0.6-0.1-0.8-0.2 0.2-0.4 0.3-0.6 0.5-3 2.3-9.7 4.3-13.9 4.2l17.7 5.2c-1.8-1.5-2.8-5.2-3.1-9.1z"/>
		<path class="st9" d="m237 34.7c0-0.3 0-0.6-0.1-0.8-0.2 0.2-0.4 0.3-0.6 0.5-3 2.3-9.7 4.3-13.9 4.2l17.7 5.2c-1.8-1.5-2.8-5.2-3.1-9.1z"/>
		<path class="st7" d="m302.2 33.9c0.2-0.2 0.4-0.3 0.6-0.5-0.3-4.8-0.2-10.1-1.4-12.8-2.1-4.7-7.3-6.7-7.3-6.7l-14.6-4.3s2.4 1.5 2.1 5.6c-0.8 11.8-1.7 18.6 7.6 22.6 3.8 0.1 10.2-1.7 13-3.9z"/>
		<path class="st8" d="m311.8 29.9s-2.1-0.9-5.8 1.2c-1 0.6-2 1.4-3.2 2.3 0 0.3 0 0.5 0.1 0.8 0.3 3.7 1.2 7.1 3 8.5l-16.7-4.9 16.7 4.9c5.7 2.5 9.5-2.5 13-7.2 2.1-2.8 4.2-2.2 4.2-2.2l-11.3-3.4z"/>
		<path class="st7" d="m302.8 34.2c0-0.3 0-0.5-0.1-0.8-0.2 0.2-0.4 0.3-0.6 0.5-2.8 2.2-9.1 4.1-13.1 3.9l16.7 4.9c-1.7-1.4-2.6-4.8-2.9-8.5z"/>
		<path class="st9" d="m302.8 34.2c0-0.3 0-0.5-0.1-0.8-0.2 0.2-0.4 0.3-0.6 0.5-2.8 2.2-9.1 4.1-13.1 3.9l16.7 4.9c-1.7-1.4-2.6-4.8-2.9-8.5z"/>
		<path class="st7" d="m368.1 33.4c0.2-0.1 0.4-0.3 0.6-0.4-0.3-4.5-0.2-9.4-1.3-12-1.9-4.4-6.9-6.3-6.9-6.3l-13.7-4s2.2 1.4 1.9 5.2c-0.8 11-1.6 17.4 7.1 21.2 3.7 0.1 9.6-1.6 12.3-3.7z"/>
		<path class="st8" d="m377.1 29.7s-2-0.9-5.5 1.1c-0.9 0.5-1.9 1.3-3 2.1 0 0.2 0 0.5 0.1 0.7 0.3 3.5 1.1 6.7 2.8 8l-15.6-4.6 15.6 4.6c5.3 2.4 8.9-2.3 12.2-6.7 2-2.6 4-2.1 4-2.1l-10.6-3.1z"/>
		<path class="st7" d="m368.7 33.7c0-0.2 0-0.5-0.1-0.7-0.2 0.1-0.4 0.3-0.6 0.4-2.6 2-8.6 3.8-12.2 3.7l15.6 4.6c-1.6-1.3-2.5-4.5-2.7-8z"/>
		<path class="st9" d="m368.7 33.7c0-0.2 0-0.5-0.1-0.7-0.2 0.1-0.4 0.3-0.6 0.4-2.6 2-8.6 3.8-12.2 3.7l15.6 4.6c-1.6-1.3-2.5-4.5-2.7-8z"/>
		<path class="st7" d="m434 33c0.2-0.1 0.4-0.3 0.5-0.4-0.3-4.2-0.2-8.8-1.3-11.2-1.8-4.1-6.4-5.9-6.4-5.9l-12.8-3.8s2.1 1.3 1.8 4.9c-0.7 10.3-1.5 16.2 6.7 19.8 3.5 0.1 9-1.5 11.5-3.4z"/>
		<path class="st8" d="m442.4 29.5s-1.8-0.8-5.1 1.1c-0.8 0.5-1.8 1.2-2.8 2v0.7c0.2 3.2 1.1 6.2 2.6 7.4l-14.6-4.3 14.6 4.3c5 2.2 8.3-2.2 11.4-6.3 1.9-2.5 3.7-1.9 3.7-1.9l-9.8-3z"/>
		<path class="st7" d="m434.5 33.2v-0.7c-0.2 0.1-0.3 0.3-0.5 0.4-2.5 1.9-8 3.5-11.4 3.5l14.6 4.3c-1.6-1.2-2.4-4.2-2.7-7.5z"/>
		<path class="st9" d="m434.5 33.2v-0.7c-0.2 0.1-0.3 0.3-0.5 0.4-2.5 1.9-8 3.5-11.4 3.5l14.6 4.3c-1.6-1.2-2.4-4.2-2.7-7.5z"/>
		<path class="st7" d="m499.8 32.5c0.2-0.1 0.3-0.3 0.5-0.4-0.3-3.9-0.2-8.2-1.2-10.4-1.7-3.8-6-5.5-6-5.5l-11.9-3.5s1.9 1.2 1.7 4.5c-0.7 9.6-1.4 15.1 6.2 18.4 3.3 0.2 8.5-1.3 10.7-3.1z"/>
		<path class="st8" d="m507.7 29.3s-1.7-0.8-4.7 1c-0.8 0.5-1.6 1.1-2.6 1.8v0.6c0.2 3 1 5.8 2.4 6.9l-13.5-3.9 13.6 3.9c4.6 2.1 7.7-2 10.6-5.8 1.7-2.3 3.4-1.8 3.4-1.8l-9.2-2.7z"/>
		<path class="st7" d="m500.4 32.8v-0.6c-0.2 0.1-0.3 0.3-0.5 0.4-2.3 1.8-7.4 3.3-10.6 3.2l13.5 3.9c-1.4-1.1-2.2-3.9-2.4-6.9z"/>
		<path class="st9" d="m500.4 32.8v-0.6c-0.2 0.1-0.3 0.3-0.5 0.4-2.3 1.8-7.4 3.3-10.6 3.2l13.5 3.9c-1.4-1.1-2.2-3.9-2.4-6.9z"/>
		<path class="st7" d="m565.8 32.5c0.2-0.1 0.3-0.3 0.5-0.4-0.3-3.9-0.2-8.2-1.2-10.4-1.7-3.8-6-5.5-6-5.5l-11.9-3.5s1.9 1.2 1.7 4.5c-0.7 9.6-1.4 15.1 6.2 18.4 3.3 0.2 8.4-1.3 10.7-3.1z"/>
		<path class="st8" d="m573.6 29.3s-1.7-0.8-4.7 1c-0.8 0.5-1.6 1.1-2.6 1.8v0.6c0.2 3 1 5.8 2.4 6.9l-13.5-3.9 13.6 3.9c4.6 2.1 7.7-2 10.6-5.8 1.7-2.3 3.4-1.8 3.4-1.8l-9.2-2.7z"/>
		<path class="st7" d="m566.3 32.8v-0.6c-0.2 0.1-0.3 0.3-0.5 0.4-2.3 1.8-7.4 3.3-10.6 3.2l13.5 3.9c-1.4-1.1-2.1-3.9-2.4-6.9z"/>
		<path class="st9" d="m566.3 32.8v-0.6c-0.2 0.1-0.3 0.3-0.5 0.4-2.3 1.8-7.4 3.3-10.6 3.2l13.5 3.9c-1.4-1.1-2.1-3.9-2.4-6.9z"/>
		<path class="st7" d="m631.8 33c0.2-0.1 0.4-0.3 0.5-0.4-0.3-4.2-0.2-8.8-1.3-11.2-1.8-4.1-6.4-5.9-6.4-5.9l-12.8-3.7s2.1 1.3 1.8 4.9c-0.7 10.3-1.5 16.2 6.7 19.8 3.5 0 9-1.6 11.5-3.5z"/>
		<path class="st8" d="m640.2 29.5s-1.8-0.8-5.1 1.1c-0.8 0.5-1.8 1.2-2.8 2v0.7c0.2 3.2 1.1 6.2 2.6 7.4l-14.6-4.3 14.6 4.3c5 2.2 8.3-2.2 11.4-6.3 1.9-2.5 3.7-1.9 3.7-1.9l-9.8-3z"/>
		<path class="st7" d="m632.4 33.2v-0.7c-0.2 0.1-0.3 0.3-0.5 0.4-2.5 1.9-8 3.5-11.4 3.5l14.6 4.3c-1.7-1.2-2.5-4.2-2.7-7.5z"/>
		<path class="st9" d="m632.4 33.2v-0.7c-0.2 0.1-0.3 0.3-0.5 0.4-2.5 1.9-8 3.5-11.4 3.5l14.6 4.3c-1.7-1.2-2.5-4.2-2.7-7.5z"/>
		<path class="st7" d="m697.8 33.4c0.2-0.1 0.4-0.3 0.6-0.4-0.3-4.5-0.2-9.4-1.3-12-1.9-4.4-6.9-6.3-6.9-6.3l-13.7-4s2.2 1.4 1.9 5.2c-0.8 11-1.6 17.4 7.1 21.2 3.8 0.1 9.7-1.6 12.3-3.7z"/>
		<path class="st8" d="m706.8 29.7s-2-0.9-5.5 1.1c-0.9 0.5-1.9 1.3-3 2.1 0 0.2 0 0.5 0.1 0.7 0.3 3.5 1.1 6.7 2.8 8l-15.6-4.6 15.6 4.6c5.3 2.4 8.9-2.3 12.2-6.7 2-2.6 4-2.1 4-2.1l-10.6-3.1z"/>
		<path class="st7" d="m698.4 33.7c0-0.2 0-0.5-0.1-0.7-0.2 0.1-0.4 0.3-0.6 0.4-2.6 2-8.6 3.8-12.2 3.7l15.6 4.6c-1.5-1.3-2.4-4.5-2.7-8z"/>
		<path class="st9" d="m698.4 33.7c0-0.2 0-0.5-0.1-0.7-0.2 0.1-0.4 0.3-0.6 0.4-2.6 2-8.6 3.8-12.2 3.7l15.6 4.6c-1.5-1.3-2.4-4.5-2.7-8z"/>
		<path class="st7" d="m763.8 33.9c0.2-0.2 0.4-0.3 0.6-0.5-0.3-4.8-0.2-10.1-1.4-12.8-2.1-4.7-7.3-6.7-7.3-6.7l-14.6-4.3s2.4 1.5 2.1 5.6c-0.8 11.8-1.7 18.6 7.6 22.6 3.9 0.1 10.2-1.7 13-3.9z"/>
		<path class="st8" d="m773.4 29.9s-2.1-0.9-5.8 1.2c-1 0.6-2 1.4-3.2 2.3 0 0.3 0 0.5 0.1 0.8 0.3 3.7 1.2 7.1 3 8.5l-16.7-4.9 16.7 4.9c5.7 2.5 9.5-2.5 13-7.2 2.1-2.8 4.2-2.2 4.2-2.2l-11.3-3.4z"/>
		<path class="st7" d="m764.5 34.2c0-0.3 0-0.5-0.1-0.8-0.2 0.2-0.4 0.3-0.6 0.5-2.8 2.2-9.1 4.1-13.1 3.9l16.7 4.9c-1.7-1.4-2.6-4.8-2.9-8.5z"/>
		<path class="st9" d="m764.5 34.2c0-0.3 0-0.5-0.1-0.8-0.2 0.2-0.4 0.3-0.6 0.5-2.8 2.2-9.1 4.1-13.1 3.9l16.7 4.9c-1.7-1.4-2.6-4.8-2.9-8.5z"/>
		<path class="st7" d="m829.8 34.3c0.2-0.2 0.4-0.3 0.6-0.5-0.3-5.1-0.2-10.7-1.5-13.6-2.2-4.9-7.8-7.1-7.8-7.1l-15.5-4.5s2.5 1.6 2.2 5.9c-0.9 12.5-1.8 19.7 8.1 24 4.2 0.2 11-1.8 13.9-4.2z"/>
		<path class="st8" d="m840.1 30.1s-2.2-1-6.2 1.3c-1 0.6-2.1 1.5-3.4 2.4 0 0.3 0 0.6 0.1 0.8 0.3 3.9 1.3 7.6 3.1 9l-17.7-5.1 17.7 5.2c6 2.7 10.1-2.6 13.8-7.6 2.3-3 4.5-2.4 4.5-2.4l-11.9-3.6z"/>
		<path class="st7" d="m830.5 34.7c0-0.3 0-0.6-0.1-0.8-0.2 0.2-0.4 0.3-0.6 0.5-3 2.3-9.7 4.3-13.9 4.2l17.7 5.2c-1.8-1.5-2.8-5.2-3.1-9.1z"/>
		<path class="st9" d="m830.5 34.7c0-0.3 0-0.6-0.1-0.8-0.2 0.2-0.4 0.3-0.6 0.5-3 2.3-9.7 4.3-13.9 4.2l17.7 5.2c-1.8-1.5-2.8-5.2-3.1-9.1z"/>
		<path class="st7" d="m895.9 34.8c0.2-0.2 0.5-0.4 0.7-0.5-0.4-5.4-0.2-11.3-1.6-14.4-2.3-5.2-8.3-7.6-8.3-7.6l-16.4-4.8s2.6 1.7 2.3 6.3c-0.9 13.2-1.9 20.9 8.6 25.4 4.4 0.2 11.5-1.9 14.7-4.4z"/>
		<path class="st8" d="m906.7 30.4s-2.4-1-6.6 1.4c-1.1 0.6-2.3 1.5-3.6 2.6 0 0.3 0 0.6 0.1 0.9 0.3 4.1 1.4 8 3.3 9.5l-18.8-5.5 18.8 5.5c6.4 2.9 10.7-2.8 14.6-8.1 2.4-3.2 4.7-2.5 4.7-2.5l-12.5-3.8z"/>
		<path class="st7" d="m896.6 35.2c0-0.3 0-0.6-0.1-0.9-0.2 0.2-0.4 0.4-0.7 0.5-3.2 2.5-10.3 4.6-14.7 4.4l18.8 5.5c-1.9-1.5-3-5.4-3.3-9.5z"/>
		<path class="st9" d="m896.6 35.2c0-0.3 0-0.6-0.1-0.9-0.2 0.2-0.4 0.4-0.7 0.5-3.2 2.5-10.3 4.6-14.7 4.4l18.8 5.5c-1.9-1.5-3-5.4-3.3-9.5z"/>
		<path class="st7" d="m961.9 35.3c0.2-0.2 0.5-0.4 0.7-0.6-0.4-5.7-0.3-12-1.7-15.2-2.5-5.5-8.7-8-8.7-8l-17.3-5s2.8 1.8 2.5 6.6c-1 14-2 22.1 9 26.8 4.6 0.2 12.1-2 15.5-4.6z"/>
		<path class="st8" d="m973.3 30.6s-2.5-1.1-6.9 1.4c-1.1 0.7-2.4 1.6-3.8 2.7 0 0.3 0 0.6 0.1 0.9 0.3 4.4 1.4 8.5 3.5 10.1l-19.8-5.7 19.8 5.8c6.8 3 11.3-2.9 15.5-8.5 2.5-3.4 5-2.6 5-2.6l-13.4-4.1z"/>
		<path class="st7" d="m962.7 35.7c0-0.3 0-0.6-0.1-0.9-0.2 0.2-0.5 0.4-0.7 0.6-3.3 2.6-10.8 4.8-15.5 4.7l19.8 5.8c-2.1-1.8-3.2-5.9-3.5-10.2z"/>
		<path class="st9" d="m962.7 35.7c0-0.3 0-0.6-0.1-0.9-0.2 0.2-0.5 0.4-0.7 0.6-3.3 2.6-10.8 4.8-15.5 4.7l19.8 5.8c-2.1-1.8-3.2-5.9-3.5-10.2z"/>
</svg>
